<svg xmlns="http://www.w3.org/2000/svg" xmlns:xlink="http://www.w3.org/1999/xlink" width="894" height="420" viewBox="0 0 894 420">
  <defs>
    <linearGradient id="linear-gradient" y1="0.5" x2="1" y2="0.5" gradientUnits="objectBoundingBox">
      <stop offset="0" stop-color="#62c1f7"/>
      <stop offset="1" stop-color="#77c8f8"/>
    </linearGradient>
  </defs>
  <g id="グループ_31" data-name="グループ 31" transform="translate(-3172 3896)">
    <rect id="長方形_78" data-name="長方形 78" width="894" height="420" rx="17" transform="translate(3172 -3896)" fill="url(#linear-gradient)"/>
    <g id="undraw_shopping_re_3wst" transform="translate(3723.775 -3798.918)">
      <path id="パス_66" data-name="パス 66" d="M773.824,486.89a.892.892,0,0,0,.646-1.546l-.061-.243.024-.058a2.4,2.4,0,0,1,4.419.016,21.278,21.278,0,0,1,1.87,5.325,7.088,7.088,0,0,1-.125,2.437,28.413,28.413,0,0,0,2.585-11.8,27.4,27.4,0,0,0-.17-3.06q-.141-1.249-.391-2.481a28.745,28.745,0,0,0-5.7-12.182,7.648,7.648,0,0,1-3.181-3.3,5.837,5.837,0,0,1-.531-1.595c.155.02.312.033.467.043l.147.008h.018a.884.884,0,0,0,.726-1.44l-.2-.247c-.1-.127-.206-.251-.307-.378a.416.416,0,0,1-.033-.038l-.35-.432a2.557,2.557,0,0,1,.838-.81,2.946,2.946,0,0,1,3.631.848,4.619,4.619,0,0,1,.714,3.867,10.243,10.243,0,0,1-1.417,3.159c.063.081.13.16.193.241a28.926,28.926,0,0,1,3.02,4.784,12.026,12.026,0,0,1,.718-5.586,20.149,20.149,0,0,1,3.11-4.487,2.468,2.468,0,0,1,4.4,1.212l.007.063q-.253.143-.495.3a1.21,1.21,0,0,0,.488,2.2l.025,0a12.03,12.03,0,0,1-.317,1.8,12.4,12.4,0,0,1-6.172,7.769c-.1.051-.2.1-.295.15a29.533,29.533,0,0,1,1.589,7.48,27.993,27.993,0,0,1-.02,4.522l.008-.053a7.4,7.4,0,0,1,2.526-4.273c1.944-1.6,4.691-2.185,6.788-3.469a1.389,1.389,0,0,1,2.127,1.351l-.009.056a8.12,8.12,0,0,0-.911.439q-.253.143-.495.3a1.21,1.21,0,0,0,.488,2.2l.025,0,.051.008a12.051,12.051,0,0,1-2.217,3.471,12.408,12.408,0,0,1-9,3.948h0a29.526,29.526,0,0,1-1.983,5.789H774c-.025-.079-.048-.16-.071-.239a8.05,8.05,0,0,0,1.96-.117c-.526-.645-1.051-1.295-1.577-1.94a.466.466,0,0,1-.033-.038c-.267-.33-.536-.658-.8-.988h0a11.787,11.787,0,0,1,.345-3Z" transform="translate(-542.445 -339.777)" fill="#f2f2f2"/>
      <path id="パス_67" data-name="パス 67" d="M725.609,370.5c0,3.9,1.951,7.867,5.85,7.867s9.28-2.824,8.069-8.876c-.765-3.824-2.959-6.052-6.859-6.052A7.061,7.061,0,0,0,725.609,370.5Z" transform="translate(-515.66 -288.373)" fill="#2f2e41"/>
      <path id="パス_68" data-name="パス 68" d="M761.417,493.065a2.171,2.171,0,0,1,.464-3.3l-1.707-7.523,3.752,1.412,1.046,6.928a2.183,2.183,0,0,1-3.555,2.48Z" transform="translate(-535.11 -355.227)" fill="#a0616a"/>
      <path id="パス_69" data-name="パス 69" d="M744.8,427.723l2.619.267s-.685,3.879.386,4.753.639.87.633,1.517a3.321,3.321,0,0,0,1.272,2.387c.857.656,2.64,12.337,2.64,12.337l3.886.037a12.169,12.169,0,0,1,.029-3.022c.23-1.509,1.395-5.31.969-5.962s-.2-1.85-.189-3.145-1.84.136-1.82-2.023-2.356-15.7-2.121-17.645-2.123-3.69-2.123-3.69l-2.159-.021Z" transform="translate(-526.46 -316.551)" fill="#e6e6e6"/>
      <path id="パス_70" data-name="パス 70" d="M681.165,402.249a2.057,2.057,0,0,0,1.92,2.5l2.1,7,2.436-2.914-2.368-6.2a2.068,2.068,0,0,0-4.089-.387Z" transform="translate(-490.623 -309.294)" fill="#a0616a"/>
      <path id="パス_71" data-name="パス 71" d="M705.448,409.388s-5.079-1.9-7.832,8.524L693.96,421.7l-3.071-5.549.406-1.316-2.373-5.38-4.069,2.335,1,3.694-.169,1.826.972,1.136,1.592,5.87,1,1.918s1.256,2.456,3.448,2.86a5.676,5.676,0,0,0,1.772.05,6.858,6.858,0,0,0,3.719-1.857,90.991,90.991,0,0,0,7.676-7.717Z" transform="translate(-492.726 -314.153)" fill="#e6e6e6"/>
      <path id="パス_72" data-name="パス 72" d="M485.877,253.741l.359,1.712.305,6.315-12.272-1.662-.942-7.312,1.3-2.14Z" transform="translate(-266.343 -141.044)" fill="#a0616a"/>
      <circle id="楕円形_9" data-name="楕円形 9" cx="5.808" cy="5.808" r="5.808" transform="translate(209.744 78.274)" fill="#a0616a"/>
      <path id="パス_73" data-name="パス 73" d="M733.067,407.358a7.666,7.666,0,0,0-5.335-4.478l-.022,0-1.15-1.548-4.666.468-.853,1.749-2.213,1.316h0l0,0-1.159.691-3.844,4.5,0,0a4.958,4.958,0,0,0-2.138,3.315,5.847,5.847,0,0,0-.057,1.168,10.032,10.032,0,0,0,1.828,4.806l.5,2.829.1.582.905.131,12.752,1.824.354.052.1.013.367-.949v-.009l3.555-9.3,1.6-4.15A7.519,7.519,0,0,0,733.067,407.358Z" transform="translate(-507.782 -309.694)" fill="#e6e6e6"/>
      <path id="パス_74" data-name="パス 74" d="M735.227,376.263l-.158-.028c-.906-.161-1.812-.319-2.715-.482l-.083-2.047-1.094,1.834a9.183,9.183,0,0,1-7.029-.673,19.836,19.836,0,0,1-2.106-1.161c-.473-2.884.72-5.157,3.782-5.447.1-.009.163-.089.247-.13h0v0c.141-.066.285-.13.43-.188a6.4,6.4,0,0,1,6.716,1.3A7.644,7.644,0,0,1,735.227,376.263Z" transform="translate(-513.596 -290.658)" fill="#2f2e41"/>
      <path id="パス_75" data-name="パス 75" d="M724.87,475.779a26.992,26.992,0,0,0-1.259-5.038v0a25.208,25.208,0,0,0-1.81-4h0a0,0,0,0,1,0,0,19.577,19.577,0,0,0-3.992-5.143l-.171-.179h-.044l-12.314-.3h-.127l-.14,0s-.052.153-.153.442a.245.245,0,0,1-.017.052c-.035.114-.079.245-.131.389-.031.1-.066.2-.1.306s-.083.24-.127.372c-.341,1.019-.84,2.5-1.452,4.329-.092.28-.188.568-.289.87-2.335,7.027-6.092,18.511-9.371,29.395H705c1.128-3.262,2.326-7.915,2.326-7.915a4.2,4.2,0,0,0,.442-2.064l3.656-3.839,2.633,13.818H725.1l.083-15.38v-.131A31.274,31.274,0,0,0,724.87,475.779Z" transform="translate(-497.517 -343.333)" fill="#ccc"/>
      <path id="パス_76" data-name="パス 76" d="M747.234,362.471v0a3.511,3.511,0,0,0,.115.9c.012.052.027.106.044.157v0a3.564,3.564,0,0,0,2.2,2.288c.076.029.155.054.233.076a3.179,3.179,0,0,0,.506.1,3.222,3.222,0,0,0,.464.032,3.539,3.539,0,0,0,.363-.017,3.44,3.44,0,0,0,.827-.189,1.037,1.037,0,0,0,.123-.044.587.587,0,0,0,.059-.025A3.563,3.563,0,0,0,754,360.937l0,0a3.488,3.488,0,0,0-.7-.982c-.643-.641-.927-2.246-1.9-2.246a1.337,1.337,0,0,0-.14,0c-.655.022-1.867,1.436-2.382,1.77a3.475,3.475,0,0,0-.977.925,3.517,3.517,0,0,0-.574,1.267A3.565,3.565,0,0,0,747.234,362.471Z" transform="translate(-527.828 -285.148)" fill="#2f2e41"/>
      <path id="パス_77" data-name="パス 77" d="M756.7,359.025a5.626,5.626,0,0,0,2.2,1.229,9.25,9.25,0,0,1,5.374,6.758,34.925,34.925,0,0,0,.529,3.625,3.349,3.349,0,0,0,2.382,2.53,4.516,4.516,0,0,0,2.4-.486l1.265-.51q-.66-1.655-1.317-3.31a16.771,16.771,0,0,0,2.443,2.859l4.537-1.828c-3.724.014-3.089-3.6-3.922-7.228-.458-1.993-4.357-3.343-5.122-5.239a5.8,5.8,0,0,0-10.522-.529C756.178,357.2,756.156,358.389,756.7,359.025Z" transform="translate(-532.944 -282.941)" fill="#2f2e41"/>
      <path id="パス_78" data-name="パス 78" d="M712.995,458.294a5.5,5.5,0,0,0-3.77,3.414,1.745,1.745,0,0,0,.016,1.5.764.764,0,0,0,.939.356,1.883,1.883,0,0,0,.817-.87,11.03,11.03,0,0,0,.644-1.478c.292-.766.916-2.045.026-2.644a4.824,4.824,0,0,0-2.582-.343,2.306,2.306,0,0,1-2.245-1.329,1.843,1.843,0,0,1,1.217-2.129,3.164,3.164,0,0,1,2.953.281,4.282,4.282,0,0,1,1.715,2.48.3.3,0,0,1-.584.161,3.59,3.59,0,0,0-1.634-2.238,2.449,2.449,0,0,0-2.609.1,1.073,1.073,0,0,0-.464,1.21,1.455,1.455,0,0,0,1.042.78c.96.232,1.964-.068,2.922.238a1.771,1.771,0,0,1,1.307,2.008,7.277,7.277,0,0,1-.481,1.583,13.681,13.681,0,0,1-.654,1.528c-.38.718-1.065,1.5-1.969,1.285-1.031-.24-1.275-1.443-1.054-2.328a6.036,6.036,0,0,1,4.286-4.15.3.3,0,0,1,.161.584Z" transform="translate(-505.057 -339.63)" fill="#ccc"/>
      <path id="パス_79" data-name="パス 79" d="M728.825,411.427H657.108a3.065,3.065,0,0,1-3.061-3.061V310.849a3.065,3.065,0,0,1,3.061-3.061h71.716a3.065,3.065,0,0,1,3.061,3.061v97.517A3.065,3.065,0,0,1,728.825,411.427ZM657.108,308.663a2.189,2.189,0,0,0-2.187,2.186v97.517a2.189,2.189,0,0,0,2.186,2.186h71.716a2.189,2.189,0,0,0,2.186-2.186V310.849a2.189,2.189,0,0,0-2.186-2.186Z" transform="translate(-475.392 -257.059)" fill="#3f3d56"/>
      <path id="パス_80" data-name="パス 80" d="M588.271,224.232H384.8a.79.79,0,1,1,0-1.58h203.47a.79.79,0,1,1,0,1.58Z" transform="translate(-323.44 -209.152)" fill="#cacaca"/>
      <ellipse id="楕円形_10" data-name="楕円形 10" cx="4.63" cy="4.733" rx="4.63" ry="4.733" transform="translate(70.253 0)" fill="#3f3d56"/>
      <ellipse id="楕円形_11" data-name="楕円形 11" cx="4.63" cy="4.733" rx="4.63" ry="4.733" transform="translate(86.247 0)" fill="#3f3d56"/>
      <ellipse id="楕円形_12" data-name="楕円形 12" cx="4.63" cy="4.733" rx="4.63" ry="4.733" transform="translate(102.241 0)" fill="#3f3d56"/>
      <path id="パス_81" data-name="パス 81" d="M813.362,194.464H802a.86.86,0,1,0,0,1.721h11.361a.86.86,0,1,0,0-1.721Z" transform="translate(-558.161 -193.291)" fill="#3f3d56"/>
      <path id="パス_82" data-name="パス 82" d="M813.362,201.848H802a.86.86,0,1,0,0,1.721h11.361a.86.86,0,1,0,0-1.721Z" transform="translate(-558.161 -197.446)" fill="#3f3d56"/>
      <path id="パス_83" data-name="パス 83" d="M813.362,209.223H802a.86.86,0,1,0,0,1.721h11.361a.86.86,0,1,0,0-1.721Z" transform="translate(-558.161 -201.596)" fill="#3f3d56"/>
      <path id="パス_84" data-name="パス 84" d="M904.362,426.158H881.185a5.685,5.685,0,1,1,0-11.37h23.177a5.685,5.685,0,0,1,0,11.37Z" transform="translate(-600.004 -317.268)" fill="#f9a826"/>
      <path id="パス_85" data-name="パス 85" d="M534.038,453.89a.892.892,0,0,1-.647-1.546l.061-.243-.024-.058a2.4,2.4,0,0,0-4.419.016,21.272,21.272,0,0,0-1.87,5.325,7.088,7.088,0,0,0,.124,2.437,28.415,28.415,0,0,1-2.585-11.8,27.431,27.431,0,0,1,.17-3.06q.141-1.249.391-2.481a28.744,28.744,0,0,1,5.7-12.182,7.649,7.649,0,0,0,3.181-3.3,5.835,5.835,0,0,0,.531-1.595c-.155.02-.312.033-.467.043l-.147.008h-.018a.884.884,0,0,1-.726-1.44l.2-.247c.1-.127.206-.251.307-.378a.431.431,0,0,0,.033-.038l.35-.432a2.556,2.556,0,0,0-.838-.81,2.946,2.946,0,0,0-3.631.848,4.619,4.619,0,0,0-.713,3.867,10.243,10.243,0,0,0,1.417,3.159c-.064.081-.13.16-.193.241a28.927,28.927,0,0,0-3.019,4.784,12.027,12.027,0,0,0-.718-5.586,20.142,20.142,0,0,0-3.11-4.487,2.468,2.468,0,0,0-4.4,1.212l-.007.063q.253.143.495.3a1.21,1.21,0,0,1-.488,2.2l-.025,0a12.039,12.039,0,0,0,.317,1.8,12.4,12.4,0,0,0,6.172,7.769c.1.051.2.1.295.15a29.528,29.528,0,0,0-1.589,7.48,28.007,28.007,0,0,0,.02,4.522l-.008-.053a7.4,7.4,0,0,0-2.526-4.273c-1.944-1.6-4.691-2.185-6.788-3.469a1.389,1.389,0,0,0-2.127,1.351l.009.056a8.129,8.129,0,0,1,.911.439q.253.143.495.3a1.21,1.21,0,0,1-.488,2.2l-.025,0-.051.008a12.049,12.049,0,0,0,2.217,3.471,12.408,12.408,0,0,0,9,3.948h0a29.516,29.516,0,0,0,1.983,5.789h7.084c.025-.079.048-.16.071-.239a8.052,8.052,0,0,1-1.96-.117c.526-.645,1.051-1.295,1.577-1.94a.451.451,0,0,0,.033-.038c.267-.33.536-.658.8-.988h0a11.79,11.79,0,0,0-.345-3Z" transform="translate(-395.862 -321.207)" fill="#f2f2f2"/>
      <g id="グループ_28" data-name="グループ 28" transform="translate(82.917 53.925)" opacity="0.38">
        <path id="パス_86" data-name="パス 86" d="M523.215,447.136a2.561,2.561,0,0,1-.044-3.927l-5.789-15.134,4.627.98,4.912,14.557a2.575,2.575,0,0,1-3.706,3.524Z" transform="translate(-481.407 -378.67)" fill="#ffb8b8"/>
        <path id="パス_87" data-name="パス 87" d="M515.724,394.329l-5.2-21.62-2.235-6.288a.015.015,0,0,1,0-.009,4.109,4.109,0,0,0-5.265-2.475,2.665,2.665,0,0,0-.258.1,4.587,4.587,0,0,0-.52.28,4.124,4.124,0,0,0-1.85,2.707L500,369.093l-.166.879,6.135,21.445v.009l2.134,7.469.988,3.446v0l1.146,4.01.026.083,2.751-.184h0l.415-.031,3.148-.21.455-.031Z" transform="translate(-471.534 -342.439)" fill="#2f2e41"/>
        <path id="パス_88" data-name="パス 88" d="M465.708,351.213l11.572,23.4L484.6,399.5c-15.422,3.007-34.774,9.441-36.167.214.858-25.724,3.562-33.93,9.144-45.082Z" transform="translate(-442.609 -335.419)" fill="#2f2e41"/>
        <path id="パス_89" data-name="パス 89" d="M489.583,471.322h-9.5L476.228,458.3l-2.711,12.852c-.009.057-.013.109-.022.166H463.367c.328-4.023.927-11.02,1.211-12.012.4-1.408,0-1.408-.8-2.213a3.839,3.839,0,0,1-.223-1.9c.048-3.45.988-10.285.988-10.285l1.115-2.064.385-.717,19.862-.7.171,0,.367,1.6.45,1.972.791,3.459.73,2.759.039.14v.818a2.018,2.018,0,0,0-.166.905C488.284,453.362,488.914,462.082,489.583,471.322Z" transform="translate(-451.012 -386.184)" fill="#2f2e41"/>
        <path id="パス_90" data-name="パス 90" d="M475.642,354.951l1.364-3.263,4.221.074,4.4,6.225,4.619,19.426s1.659,14.19,0,14.94-21.749.35-21.749.35c.93-7.663,1.623-15.459,2.354-20.116C473.266,357.2,474.406,360.434,475.642,354.951Z" transform="translate(-453.899 -335.687)" fill="#f9a826"/>
        <path id="パス_91" data-name="パス 91" d="M497.606,351.857s9.092,5.255,9.447,8,1.546,36.32,1.546,36.32l-3.215-2.078-.879-12.238c.613-10.874-.883-18.979-3.924-25.055Z" transform="translate(-470.278 -335.782)" fill="#2f2e41"/>
        <circle id="楕円形_13" data-name="楕円形 13" cx="6.196" cy="6.196" r="6.196" transform="translate(18.985 2.154)" fill="#ffb8b8"/>
        <path id="パス_92" data-name="パス 92" d="M475.092,323.079a10.776,10.776,0,0,0,1.474,3.531,2.4,2.4,0,0,0,.8.913.879.879,0,0,0,1.116-.14l.151-.123a3.2,3.2,0,0,1-.782-.678,1.089,1.089,0,0,1-.209-.974.671.671,0,0,1,.821-.438c.363.142.583.667.963.586.307-.067.371-.472.371-.79-.011-1.664.793-4.028,1.415-3.955a5.019,5.019,0,0,0,1.856-.248,4.863,4.863,0,0,1,1.859-.237c.045.006.089.014.137.022a4.118,4.118,0,0,1,.413-.9,4.817,4.817,0,0,0,.05,1.022,9.561,9.561,0,0,0,1.546.488c.575.081,1.839,1.8,1.9,1.624a4.117,4.117,0,0,1,.413-.9,4.817,4.817,0,0,0,.05,1.022c0,.014,0,.025.006.039.279-.371.449-.823.354-.477.935-2.116.572-3.631-.9-5.415a2.829,2.829,0,0,0-1.1-.885,1.39,1.39,0,0,0-1.357.134,4.564,4.564,0,0,0-4.527-.966c-1.532.533-2.713.846-2.947,2.453a3.411,3.411,0,0,0-3.268,1.591,5.151,5.151,0,0,0-.606,3.7Z" transform="translate(-457.546 -315.097)" fill="#2f2e41"/>
        <path id="パス_93" data-name="パス 93" d="M435.3,443.063a2.561,2.561,0,0,1,1.857-3.46l2.234-16.049,3.579,3.091-2.724,15.12a2.575,2.575,0,0,1-4.946,1.3Z" transform="translate(-435.114 -376.126)" fill="#ffb8b8"/>
        <path id="パス_94" data-name="パス 94" d="M455.1,363.484l-.171-1.557a4.121,4.121,0,0,0-2.379-3.288,4.016,4.016,0,0,0-1.592-.372h0A4.117,4.117,0,0,0,447.1,360.7l-2.729,6.1-6.887,21.143-2.226,11.5,2.405.354,3.485.512.026,0,.8.118L453.156,370.5l0-.009,2.09-5.593Z" transform="translate(-435.194 -339.388)" fill="#2f2e41"/>
      </g>
      <path id="パス_95" data-name="パス 95" d="M479.825,377.427H408.108a3.065,3.065,0,0,1-3.061-3.061V276.849a3.065,3.065,0,0,1,3.061-3.061h71.716a3.065,3.065,0,0,1,3.061,3.061v97.517A3.065,3.065,0,0,1,479.825,377.427ZM408.108,274.663a2.189,2.189,0,0,0-2.186,2.186v97.517a2.189,2.189,0,0,0,2.186,2.186h71.716a2.189,2.189,0,0,0,2.186-2.186V276.849a2.189,2.189,0,0,0-2.186-2.186Z" transform="translate(-335.278 -237.927)" fill="#e6e6e6"/>
      <path id="パス_96" data-name="パス 96" d="M274.362,426.158H251.185a5.685,5.685,0,0,1,0-11.37h23.177a5.685,5.685,0,0,1,0,11.37Z" transform="translate(-245.5 -317.268)" fill="#e6e6e6"/>
      <path id="パス_97" data-name="パス 97" d="M300.362,477.158H277.185a5.685,5.685,0,1,1,0-11.37h23.177a5.685,5.685,0,0,1,0,11.37Z" transform="translate(-260.13 -345.966)" fill="#e6e6e6"/>
      <rect id="長方形_91" data-name="長方形 91" width="0.875" height="44.792" transform="translate(52.478 127.894) rotate(-89.173)" fill="#e6e6e6"/>
      <path id="パス_98" data-name="パス 98" d="M469.417,483.681a2.19,2.19,0,0,1-1.969-1.228h0a2.186,2.186,0,1,1,1.969,1.228Zm0-3.5a1.312,1.312,0,0,0-1.178,1.887h0a1.311,1.311,0,1,0,1.178-1.887Z" transform="translate(-370.267 -353.574)" fill="#e6e6e6"/>
      <rect id="長方形_92" data-name="長方形 92" width="0.875" height="44.792" transform="translate(42.857 104.718) rotate(-89.173)" fill="#e6e6e6"/>
      <path id="パス_99" data-name="パス 99" d="M447.417,430.679a2.19,2.19,0,0,1-1.969-1.228h0a2.187,2.187,0,1,1,1.969,1.228Zm-1.183-1.611a1.312,1.312,0,1,0-.061-1A1.312,1.312,0,0,0,446.234,429.067Z" transform="translate(-357.887 -323.748)" fill="#e6e6e6"/>
      <path id="パス_100" data-name="パス 100" d="M314.362,376.158H291.185a5.685,5.685,0,0,1,0-11.37h23.177a5.685,5.685,0,0,1,0,11.37Z" transform="translate(-268.008 -289.133)" fill="#e6e6e6"/>
      <rect id="長方形_93" data-name="長方形 93" width="0.875" height="44.792" transform="translate(60.349 82.853) rotate(-89.173)" fill="#e6e6e6"/>
      <path id="パス_101" data-name="パス 101" d="M487.417,380.678a2.19,2.19,0,0,1-1.969-1.228h0a2.187,2.187,0,1,1,1.969,1.228Zm-1.183-1.611a1.312,1.312,0,1,0-.061-1A1.311,1.311,0,0,0,486.234,379.067Z" transform="translate(-380.395 -295.613)" fill="#e6e6e6"/>
      <rect id="長方形_94" data-name="長方形 94" width="0.875" height="44.792" transform="translate(225.154 101.736) rotate(-89.173)" fill="#3f3d56"/>
      <path id="パス_102" data-name="パス 102" d="M753.285,423.223a2.19,2.19,0,1,1,.956-.222,2.19,2.19,0,0,1-.956.222Zm0-3.5a1.313,1.313,0,1,0,1.18.738h0A1.315,1.315,0,0,0,753.282,419.722Z" transform="translate(-529.997 -319.549)" fill="#3f3d56"/>
      <path id="パス_103" data-name="パス 103" d="M904.362,529.158H881.185a5.685,5.685,0,1,1,0-11.37h23.177a5.685,5.685,0,0,1,0,11.37Z" transform="translate(-600.004 -375.227)" fill="#f9a826"/>
      <rect id="長方形_95" data-name="長方形 95" width="0.875" height="44.792" transform="translate(225.154 146.777) rotate(-89.173)" fill="#3f3d56"/>
      <path id="パス_104" data-name="パス 104" d="M753.292,526.231a2.187,2.187,0,1,1,1.964-3.146h0a2.188,2.188,0,0,1-1.964,3.146Zm0-3.5a1.313,1.313,0,1,0,1.18.738h0a1.315,1.315,0,0,0-1.18-.738Z" transform="translate(-530.005 -377.516)" fill="#3f3d56"/>
      <path id="パス_105" data-name="パス 105" d="M619.1,520.479a2.573,2.573,0,0,0,.113-3.916l4.165-12.127-3.071-1.977-4.842,14.44a2.569,2.569,0,0,0,3.635,3.581Z" transform="translate(-453.377 -366.601)" fill="#ffb6b6"/>
      <path id="パス_106" data-name="パス 106" d="M625.954,462.087c-.736,3.112-1.834,5.83-1.685,7.135s-1.444,2.553-.938,3.582-1.049,1.142-.629,2.8.7,2.02.34,2.293-2.252,6.623-2.252,6.623l1.111.407,3.241,1.182,7.615-12.525-.023-15.374-1.891-.061c-.454.17-.957.374-1.458.621C627.852,459.512,626.3,460.605,625.954,462.087Z" transform="translate(-456.677 -341.669)" fill="#f9a826"/>
      <path id="パス_107" data-name="パス 107" d="M451.223,478.792h3.96l1.884-15.274h-5.845Z" transform="translate(-253.905 -260.824)" fill="#ffb6b6"/>
      <path id="パス_108" data-name="パス 108" d="M699.722,687.589V684.9l-1.041.064-4.238.251-.981.06-.75,8.991-.04.482h2.812l.09-.479.408-2.176,1.055,2.176.231.479h7.455a1.684,1.684,0,0,0,1.674-1.677C706.711,691.606,700.512,688.43,699.722,687.589Z" transform="translate(-497.126 -469.264)" fill="#2f2e41"/>
      <path id="パス_109" data-name="パス 109" d="M345.131,471.5l3.445,1.954,9.176-12.355-5.084-2.884Z" transform="translate(-194.207 -257.837)" fill="#ffb6b6"/>
      <path id="パス_110" data-name="パス 110" d="M588.29,680.473l1.322-2.333-.931-.459-3.813-1.871-.884-.435-4.342,6.357-1.021,1.493,1.155.656,1.289.733,1.747-2.062-.194,2.942,6.089,3.458h0l.392.221a1.676,1.676,0,0,0,2.283-.633C592.384,687.415,588.561,681.6,588.29,680.473Z" transform="translate(-432.95 -463.902)" fill="#2f2e41"/>
      <path id="パス_111" data-name="パス 111" d="M623.875,517c-5.307,3.516-10.56,37.3-9.181,36.749l-12.508,23.31,6.393,4.322,23.116-36.987,7.684,16.362,3.173,25.115,7.959-.569c-2.068-28.294-7.232-58.135-11.512-69.678Z" transform="translate(-446.209 -374.009)" fill="#2f2e41"/>
      <path id="パス_112" data-name="パス 112" d="M639.219,480.645l-.058.217c5.61,3.121,20.966-.494,20.966-.494l-2.475-7.975,3.341-17.716a5.178,5.178,0,0,0-5.563-5.131l-4.031-2.986-5.739.2L641.82,451l-2.294.819-1.782.635c-.36.324-.753.7-1.13,1.111l2.819,16.775,1.2,5.016Z" transform="translate(-465.582 -335.146)" fill="#f9a826"/>
      <circle id="楕円形_14" data-name="楕円形 14" cx="7.364" cy="7.364" r="7.364" transform="translate(175.588 96.02)" fill="#ffb6b6"/>
      <path id="パス_113" data-name="パス 113" d="M638.455,411.2l.063.025a1.03,1.03,0,0,0,.129.047,3.559,3.559,0,0,0,.871.2,3.5,3.5,0,0,0,.382.02,3.6,3.6,0,0,0,.49-.032,3.465,3.465,0,0,0,.534-.109,2.541,2.541,0,0,0,.245-.079,3.751,3.751,0,0,0,2.322-2.406v0a1.628,1.628,0,0,0,.047-.165,3.718,3.718,0,0,0,.123-.948v-.006a3.723,3.723,0,0,0-.7-2.177c-.274-.388-.591-.453-.413-.9.566-1.417-1.751-2.575-3.119-1.952a1.342,1.342,0,0,0-.149-.006c-.921,0-1.263,1.358-1.812,2.124l.016.005a.707.707,0,0,1-.009,1.337q-.548.179-1.108.316C635.141,407.945,636.552,412.2,638.455,411.2Z" transform="translate(-465.185 -310.378)" fill="#2f2e41"/>
      <path id="パス_114" data-name="パス 114" d="M642.8,416.75a7.644,7.644,0,0,0,2.4,4.068c1.246,1.007,7.106,3.392,7.6,1.35-.331,1.426-.131,1.971.4,2.481.091-.124.188-.241.287-.357a4.639,4.639,0,0,1,1.3-1.039,14.915,14.915,0,0,1-.185,2.574,8.679,8.679,0,0,1,.625.64c.948-2.825,3.025-6.208,1.521-8.78-.6-1.021-.1-1.161.429-1.278.923-.2,1.432-3.992,1.651-4.913a4.133,4.133,0,0,0-.335-3.43c-.715-.948-2.525-.988-2.891.141l-.762-1.036c-.984-2.167-3.6-1.733-5.961-1.453a7.344,7.344,0,0,0-5.513,4.067A10.045,10.045,0,0,0,642.8,416.75Z" transform="translate(-468.849 -312.033)" fill="#2f2e41"/>
      <path id="パス_115" data-name="パス 115" d="M646.079,408.1a6.67,6.67,0,0,1-3.816,6.287c-.48.217-.9-.494-.415-.713a5.869,5.869,0,0,0,3.405-5.576c-.028-.531.8-.527.825,0Z" transform="translate(-468.407 -313.281)" fill="#f9a826"/>
      <path id="パス_116" data-name="パス 116" d="M714.65,417.81A2.572,2.572,0,0,0,713,421.364l-8.613,9.5,2.042,3.028,10.147-11.357a2.569,2.569,0,0,0-1.927-4.724Z" transform="translate(-503.719 -318.917)" fill="#ffb6b6"/>
      <path id="パス_117" data-name="パス 117" d="M671.87,458.51s6.109,1.1,8.012-1.474,3.985-4.634,4.364-5.891,2.333-1.776,2.275-2.923,1.415-.634,1.683-2.328.158-2.13.594-2.24,4.68-5.2,4.68-5.2l-3.37-3.178-11.939,8.5Z" transform="translate(-485.42 -328.799)" fill="#f9a826"/>
      <path id="パス_118" data-name="パス 118" d="M546.284,667.077a16,16,0,0,1-11.647-7.358,33.34,33.34,0,0,1-3.33-8.941c-.24-.9-.488-1.822-.751-2.715a5.107,5.107,0,0,1,1.687-5.469,5.021,5.021,0,0,1,5.6-.578l.193.1.338,7.6c.5-1.018,1.6-3.318,2.472-5.615l.073-.192.167.12a25.692,25.692,0,0,1,4.72,4.386,26.476,26.476,0,0,1,5.6,21.544l-.042.225Z" transform="translate(-405.777 -444.796)" fill="#f2f2f2"/>
      <path id="パス_119" data-name="パス 119" d="M495.938,706.359a.519.519,0,0,0,.52.52H623.4a.52.52,0,0,0,0-1.041H496.459a.519.519,0,0,0-.52.52Z" transform="translate(-386.423 -481.044)" fill="#ccc"/>
    </g>
    <text id="MANEKINを買う" transform="translate(3418.081 -3739.761)" fill="#fff" font-size="40" font-family="HiraginoSans-W6, Hiragino Sans"><tspan x="-163.9" y="0">MANEKINを買う</tspan></text>
    <text id="コーディネートされた服を閲覧し_気に入ったものをコーディネートごと_そのまま買うことができます" data-name="コーディネートされた服を閲覧し、
気に入ったものをコーディネートごと
そのまま買うことができます" transform="translate(3254.081 -3665)" fill="#fff" font-size="24" font-family="HiraginoSans-W6, Hiragino Sans"><tspan x="0" y="0">コーディネートされた服を閲覧し、</tspan><tspan x="0" y="30">気に入ったものをコーディネートごと</tspan><tspan x="0" y="60">そのまま買うことができます</tspan></text>
  </g>
</svg>
