<svg xmlns="http://www.w3.org/2000/svg" width="20" height="15.15" viewBox="0 0 20 15.15">
  <path id="buy_icon" d="M21.79,9.042a.479.479,0,0,1-.085.383L19.3,13a.534.534,0,0,1-.433.214,1.243,1.243,0,0,1-.218-.022l-1.925-.472v8.466a.428.428,0,0,1-.446.446H6.925a.428.428,0,0,1-.446-.446V12.718l-1.729.477A.407.407,0,0,1,4.265,13L1.881,9.439a.449.449,0,0,1-.062-.374.435.435,0,0,1,.245-.285l4.861-2.3H9.153a.426.426,0,0,1,.446.446c0,.918,1.288,1.568,2.206,1.568s2.25-.646,2.25-1.568A.428.428,0,0,1,14.5,6.48h2.228L21.54,8.735a.479.479,0,0,1,.25.307Z" transform="translate(-1.802 -6.48)" fill="#5f5f5f"/>
</svg>
