<svg xmlns="http://www.w3.org/2000/svg" width="245.103" height="34.057" viewBox="0 0 245.103 34.057">
  <g id="グループ_18" data-name="グループ 18" transform="translate(-600.114 58.057)">
    <g id="グループ_17" data-name="グループ 17" transform="translate(-307.535 404.225)">
      <path id="パス_472" data-name="パス 472" d="M0-.451,9.653,5.736,0,11.248Z" transform="translate(907.656 -439.545)" fill="#033654"/>
      <path id="パス_473" data-name="パス 473" d="M6.195,5.053-3.1,9.762,6.235,15.8Z" transform="translate(911.01 -450.27)" fill="#005789"/>
      <path id="パス_474" data-name="パス 474" d="M-.085,3.354l-6.048,9.984,9.071-4.7Z" transform="translate(914.034 -454.412)" fill="#0a727b"/>
      <path id="パス_475" data-name="パス 475" d="M-4.762-16.483-4.816,3.445,1.058-6.573Z" transform="translate(912.465 -445.254)" fill="#0a727b"/>
      <path id="パス_476" data-name="パス 476" d="M-26.271.863l5.722,9.779,2.875-4.8Z" transform="translate(934.415 -463.145)" fill="#016037"/>
      <path id="パス_477" data-name="パス 477" d="M-42.2.238-45.036,5.2l2.678,4.671Z" transform="translate(959.455 -457.065)" fill="#5f802f"/>
      <path id="パス_478" data-name="パス 478" d="M-47.393,5.817-56.188.5l-.232,10.537Z" transform="translate(974.117 -457.252)" fill="#8dc943"/>
      <path id="パス_479" data-name="パス 479" d="M-54.912-30.713l-9.363,5.4,9.406,5.432Z" transform="translate(982.013 -420.274)" fill="#f2ee2c"/>
      <path id="パス_480" data-name="パス 480" d="M9.653-.451,0,5.736l9.653,5.512Z" transform="translate(937.762 -439.472)" fill="#3c1657"/>
      <path id="パス_481" data-name="パス 481" d="M-3.059,5.053,6.235,9.762-3.1,15.8Z" transform="translate(940.925 -450.196)" fill="#4e1f6f"/>
      <path id="パス_482" data-name="パス 482" d="M-3.11,3.354l6.048,9.984-9.071-4.7Z" transform="translate(944.232 -454.339)" fill="#57023d"/>
      <path id="パス_483" data-name="パス 483" d="M1-16.483,1.058,3.445-4.816-6.572Z" transform="translate(946.364 -445.181)" fill="#9a055b"/>
      <path id="パス_484" data-name="パス 484" d="M-17.674.863-23.4,10.642l-2.875-4.8Z" transform="translate(964.601 -463.071)" fill="#da0f5e"/>
      <path id="パス_485" data-name="パス 485" d="M-45.036.238-42.2,5.2l-2.678,4.671Z" transform="translate(982.848 -456.992)" fill="#da0f5e"/>
      <path id="パス_486" data-name="パス 486" d="M-56.42,5.817-47.625.5l.232,10.537Z" transform="translate(984.766 -457.179)" fill="#f74924"/>
      <path id="パス_487" data-name="パス 487" d="M-64.382-30.713l9.363,5.4-9.4,5.446Z" transform="translate(992.351 -420.201)" fill="#f89426"/>
    </g>
    <g id="グループ_161" data-name="グループ 161" transform="translate(654.783 -52.971)">
      <path id="パス_506" data-name="パス 506" d="M0,0H5.057L9.933,8.171,14.522,0H19.7V23.884H14.522V9.364L10.55,14.607H9.186L5.057,9.364V23.884H0Z" fill="#080808"/>
      <path id="前面オブジェクトで型抜き_20" data-name="前面オブジェクトで型抜き 20" d="M19.268,24.161H15.242l-1.514-3.7H5.481l-1.159,3.7H-.854L6.573.6h5.463l7.232,23.56ZM9.136,7.377l-2.7,9.1h6l-2.766-9.1Z" transform="translate(32.426 -0.277)"/>
      <path id="パス_509" data-name="パス 509" d="M0,0H4.6l9.055,14.238V0h4.4V23.884h-4.4L4.565,9.642V23.885H0Z" transform="translate(64.437)" fill="#080808"/>
      <path id="パス_510" data-name="パス 510" d="M0,0H16.555V4.379H4.982v5.694h7.453v3.745H4.982v5.849H16.555v4.216H0Z" transform="translate(95.646)" fill="#080808"/>
      <path id="パス_511" data-name="パス 511" d="M0,0H4.869V9.966L12.77,0h5.358L9.287,11.306l8.841,12.578H13.357l-6.726-9.53-1.762,2.2v7.331H0Z" transform="translate(124.426)" fill="#080808"/>
      <rect id="長方形_385" data-name="長方形 385" width="4.747" height="23.884" transform="translate(154.477)" fill="#080808"/>
      <path id="パス_512" data-name="パス 512" d="M0,0H4.6l9.055,14.238V0h4.4V23.884h-4.4L4.565,9.642V23.885H0Z" transform="translate(172.381)" fill="#080808"/>
    </g>
  </g>
</svg>
