<svg xmlns="http://www.w3.org/2000/svg" width="127.051" height="96.24" viewBox="0 0 127.051 96.24">
  <path id="Icon_map-clothing-store" data-name="Icon map-clothing-store" d="M128.774,22.756a3.04,3.04,0,0,1-.538,2.434l-15.257,22.7a3.393,3.393,0,0,1-2.748,1.359,7.894,7.894,0,0,1-1.384-.142l-12.228-3V99.889a2.72,2.72,0,0,1-2.831,2.831H34.346a2.72,2.72,0,0,1-2.831-2.831V46.108L20.533,49.137a2.588,2.588,0,0,1-3.085-1.217L2.3,25.275a2.854,2.854,0,0,1-.4-2.378,2.761,2.761,0,0,1,1.557-1.812L34.346,6.48H48.5a2.7,2.7,0,0,1,2.831,2.831c0,5.831,8.18,9.964,14.011,9.964s14.294-4.1,14.294-9.964A2.72,2.72,0,0,1,82.466,6.48H96.619L127.189,20.8a3.045,3.045,0,0,1,1.585,1.953Z" transform="translate(-1.802 -6.48)" fill="#b2b2b2"/>
</svg>
