<svg xmlns="http://www.w3.org/2000/svg" xmlns:xlink="http://www.w3.org/1999/xlink" width="894" height="420" viewBox="0 0 894 420">
  <defs>
    <linearGradient id="linear-gradient" y1="0.5" x2="1" y2="0.5" gradientUnits="objectBoundingBox">
      <stop offset="0" stop-color="#e67cc8"/>
      <stop offset="1" stop-color="#e090c9"/>
    </linearGradient>
  </defs>
  <g id="グループ_33" data-name="グループ 33" transform="translate(-5052 3893)">
    <rect id="長方形_80" data-name="長方形 80" width="894" height="420" rx="15" transform="translate(5052 -3893)" fill="url(#linear-gradient)"/>
    <g id="undraw_knowledge_re_leit" transform="translate(5589.957 -3815)">
      <path id="パス_28" data-name="パス 28" d="M627.874,422.149H425.662a6.8,6.8,0,0,1-6.8-6.8V250.7a6.8,6.8,0,0,1,6.8-6.8H627.874a6.8,6.8,0,0,1,6.8,6.8V415.353A6.8,6.8,0,0,1,627.874,422.149Z" transform="translate(-374.813 -202.402)" fill="#e6e6e6"/>
      <path id="パス_29" data-name="パス 29" d="M612.824,422.164H434.843a6.8,6.8,0,0,1-6.8-6.8V259.886a6.8,6.8,0,0,1,6.8-6.8H627.887a6.8,6.8,0,0,1,6.8,6.8V400.3a21.884,21.884,0,0,1-21.859,21.859Z" transform="translate(-379.41 -207.001)" fill="#fff"/>
      <path id="パス_30" data-name="パス 30" d="M616.889,319.979H535.615a1.753,1.753,0,1,1,0-3.505h81.274a1.753,1.753,0,0,1,0,3.505Z" transform="translate(-432.384 -238.732)" fill="#f9a826"/>
      <path id="パス_31" data-name="パス 31" d="M658.031,357.426H535.615a1.753,1.753,0,0,1,0-3.505H658.031a1.753,1.753,0,0,1,0,3.505Z" transform="translate(-432.384 -257.479)" fill="#e6e6e6"/>
      <path id="パス_32" data-name="パス 32" d="M658.031,394.873H535.615a1.753,1.753,0,1,1,0-3.505H658.031a1.753,1.753,0,1,1,0,3.505Z" transform="translate(-432.384 -276.227)" fill="#e6e6e6"/>
      <path id="パス_33" data-name="パス 33" d="M658.031,432.32H535.615a1.753,1.753,0,1,1,0-3.505H658.031a1.753,1.753,0,0,1,0,3.505Z" transform="translate(-432.384 -294.974)" fill="#e6e6e6"/>
      <path id="パス_34" data-name="パス 34" d="M658.031,469.767H535.615a1.753,1.753,0,0,1,0-3.505H658.031a1.753,1.753,0,0,1,0,3.505Z" transform="translate(-432.384 -313.721)" fill="#e6e6e6"/>
      <path id="パス_35" data-name="パス 35" d="M762.593,515.161a8.875,8.875,0,1,1,8.875-8.875,8.875,8.875,0,0,1-8.875,8.875Z" transform="translate(-542.45 -329.315)" fill="#f9a826"/>
      <path id="パス_36" data-name="パス 36" d="M772.094,510.332l-2.516-3.672a.746.746,0,0,0-1.231.843l1.627,2.375H763.6a.875.875,0,1,0,0,1.751h6.455l-1.707,2.492a.746.746,0,1,0,1.231.843l2.516-3.672A.985.985,0,0,0,772.094,510.332Z" transform="translate(-546.959 -333.783)" fill="#fff"/>
      <path id="パス_37" data-name="パス 37" d="M633.746,193.47H401.392a.9.9,0,1,1,0-1.8H633.746a.9.9,0,1,1,0,1.8Z" transform="translate(-365.614 -176.25)" fill="#cacaca"/>
      <ellipse id="楕円形_5" data-name="楕円形 5" cx="5.287" cy="5.405" rx="5.287" ry="5.405" transform="translate(45.935 0)" fill="#3f3d56"/>
      <ellipse id="楕円形_6" data-name="楕円形 6" cx="5.287" cy="5.405" rx="5.287" ry="5.405" transform="translate(64.199 0)" fill="#3f3d56"/>
      <ellipse id="楕円形_7" data-name="楕円形 7" cx="5.287" cy="5.405" rx="5.287" ry="5.405" transform="translate(82.463 0)" fill="#3f3d56"/>
      <path id="パス_38" data-name="パス 38" d="M831.577,163.477H818.6a.982.982,0,1,0,0,1.965h12.974a.982.982,0,1,0,0-1.965Z" transform="translate(-574.441 -162.138)" fill="#3f3d56"/>
      <path id="パス_39" data-name="パス 39" d="M831.577,170.862H818.6a.982.982,0,1,0,0,1.965h12.974a.982.982,0,1,0,0-1.965Z" transform="translate(-574.441 -165.835)" fill="#3f3d56"/>
      <path id="パス_40" data-name="パス 40" d="M831.577,178.236H818.6a.982.982,0,1,0,0,1.965h12.974a.982.982,0,1,0,0-1.965Z" transform="translate(-574.441 -169.527)" fill="#3f3d56"/>
      <path id="パス_41" data-name="パス 41" d="M452.474,529.878a3.172,3.172,0,0,0,0-4.864l-1.924-16.626-6.109,1.415,3.4,15.76a3.189,3.189,0,0,0,4.636,4.315Z" transform="translate(-387.618 -334.81)" fill="#ffb6b6"/>
      <path id="パス_42" data-name="パス 42" d="M448.746,470.084l-7.073,4.413s-.431,2.586-.917-3.913c-.051-.678.423-1.86.371-2.557-.059-.786-2.309-1.143-2.368-1.938-.042-.566.608-1.069.566-1.633-.064-.855-.127-1.7-.189-2.541-.052-.7-.827-1.143-.877-1.818s.624-1.593.577-2.238c-.357-4.838.876-17.01.876-17.258a3.529,3.529,0,0,0-.752-1.694l.378-1.129-.25-2.118a12.934,12.934,0,0,1,1.668-8.021h0l1.8-1.176,8.288,13.941C447.353,452.466,445.076,457.2,448.746,470.084Z" transform="translate(-384.52 -293.796)" fill="#f9a826"/>
      <path id="パス_43" data-name="パス 43" d="M117.567,544.632h4.279l2.036-16.5h-6.315Z" transform="translate(-58.861 -264.397)" fill="#ffb6b6"/>
      <path id="パス_44" data-name="パス 44" d="M444.55,715.694l6.836-.408v2.929l6.5,4.488a1.829,1.829,0,0,1-1.04,3.335h-8.138l-1.4-2.9-.548,2.9h-3.068Z" transform="translate(-387.24 -438.39)" fill="#2f2e41"/>
      <path id="パス_45" data-name="パス 45" d="M165.7,544.632h4.279l2.036-16.5H165.7Z" transform="translate(-82.956 -264.397)" fill="#ffb6b6"/>
      <path id="パス_46" data-name="パス 46" d="M492.678,715.694l6.836-.408v2.929l6.5,4.488a1.829,1.829,0,0,1-1.039,3.335h-8.138l-1.4-2.9-.548,2.9h-3.068Z" transform="translate(-411.334 -438.39)" fill="#2f2e41"/>
      <path id="パス_47" data-name="パス 47" d="M443.408,585.814h.017l.823-39.3a7.017,7.017,0,0,1,.092-6.631l.118-.213-.305-1.416a9.019,9.019,0,0,1,.515-5.428l.768-25.031c-2.743-17.774,10.328-29.365,10.328-29.365h19.579l4.2,14.442c2.779,27.073,2.275,65.924-2.135,91.484l.12.061a1.016,1.016,0,0,1,.415,1.339c-.2.59-.72.948-1.153.8l-10.34-.36a1.016,1.016,0,0,1-.415-1.339c.2-.59.72-.948,1.153-.8l.7.356-.725-1.477a5.508,5.508,0,0,1,.448-5.611h0l-.127-3.251h0a4.951,4.951,0,0,1-.969-4.666l.7-2.276-.824-21.082.166-4.73-.343-5.366-1.585-24.135-6,29.679-6.128,44.617a1.124,1.124,0,0,1,.345,1.076,1.166,1.166,0,0,1-1.155.887h-8.318a1.133,1.133,0,0,1-1.091-1.435A1.147,1.147,0,0,1,443.408,585.814Z" transform="translate(-386.518 -319.811)" fill="#2f2e41"/>
      <path id="パス_48" data-name="パス 48" d="M528.124,517.7a3.172,3.172,0,0,0-.922-4.775l-5.048-15.958-5.729,2.55,6.328,14.828a3.189,3.189,0,0,0,5.372,3.355Z" transform="translate(-423.653 -329.092)" fill="#ffb6b6"/>
      <path id="パス_49" data-name="パス 49" d="M471.708,414.417s5.758,20.375,5.5,22.434c-.538,4.244-27,17.292-28.964,11.486l.247-1.909c-.994-1.988,5.071-9.878,5.365-10.91.374-1.32-1.32-5.653-1.32-5.653a23.334,23.334,0,0,0,.984-6.4c-.191-2.449-.755-2.071-2.826-3.581s-5.462-8.475-5.462-8.475,1.507-6.782,1.507-8.1,6.189-3.568,6.941-4.319a7.054,7.054,0,0,0,.821-1.41c.152-.3.055-1.011.218-1.361.1-.229.468-.087.575-.322s.014-.492.118-.717c.135-.3.461-.558.589-.838A8.989,8.989,0,0,1,457.244,392c.374,0,12.434,1.7,12.434,1.7a18.085,18.085,0,0,0,2.258,2.826c1.32,1.316,7.5,4.52,7.5,4.52Z" transform="translate(-388.011 -276.542)" fill="#f9a826"/>
      <path id="パス_50" data-name="パス 50" d="M513.407,457.761c-.942.942-5.6,5.268-5.794,4.135s-.289-1.264-1.044-1.638-.755-.565-.942-1.884-1.884-2.639-1.694-3.2.012.154.012-.414-.565-2.636-1.32-3.013-1.884-.752-1.316-1.694-5.317-29.205-5.317-29.205l5.275-10.36,3.578-.378s1.087.622,1.428,6.23c.017.284.327.805.34,1.116.011.258-.274.3-.266.577q0,.089,0,.178c.007.275.75.477.761.743.02.474.312,3.5.343,3.942q.053.752.126,1.448a50.083,50.083,0,0,0,1.03,7.094c.5,2.5,2.569,17.08,2.569,17.08s1.507.374,1.507,1.694,1.662,3.972.91,5.479S514.349,456.819,513.407,457.761Z" transform="translate(-413.425 -285.608)" fill="#f9a826"/>
      <circle id="楕円形_8" data-name="楕円形 8" cx="8.936" cy="8.936" r="8.936" transform="translate(65.405 97.198)" fill="#ffb8b8"/>
      <path id="パス_51" data-name="パス 51" d="M434.3,377.812q-2.836-1.005-5.673-2.014a5.71,5.71,0,0,1,1.228-1.445c1.8-1.5,4.285-1.775,6.571-2.282s4.774-1.547,5.611-3.735c.869-2.275-.391-4.731-1.123-7.049a14.2,14.2,0,0,1,.37-9.947,11.072,11.072,0,0,1,7.473-6.354,9.1,9.1,0,0,1,9.089,3.173,5.6,5.6,0,0,1,6.745,3.123,4.058,4.058,0,0,1-.217,3.688,2.71,2.71,0,0,1-3.354,1.021l.659-1.674c-2.039.692-3.365,4.379-3.09,6.517a12.966,12.966,0,0,0,2.782,5.745,17.4,17.4,0,0,1,3.155,5.586,10.069,10.069,0,0,1-2.231,8.672,19.085,19.085,0,0,1-7.567,5.231,35.084,35.084,0,0,1-6.629,2.043c.406-.79.808-1.579,1.213-2.369l-4.814,2.912c-.931.091-1.869.145-2.807.163a19.191,19.191,0,0,1-8.016-1.329,10.11,10.11,0,0,1-5.608-5.651,7.324,7.324,0,0,1-.406-2.594Q430.979,378.525,434.3,377.812Z" transform="translate(-379.214 -252.9)" fill="#2f2e41"/>
      <path id="パス_52" data-name="パス 52" d="M593,720.487H576.43l-.071-.129c-.212-.384-.416-.791-.608-1.21-1.707-3.655-2.429-7.834-3.065-11.522l-.479-2.78a1.716,1.716,0,0,1,2.7-1.679q3.778,2.749,7.559,5.493c.954.694,2.044,1.5,3.088,2.367.1-.489.206-.98.312-1.464A1.717,1.717,0,0,1,589,709.02l1.939,3.115c1.414,2.275,2.662,4.517,2.408,6.935a.375.375,0,0,1-.007.088,5.469,5.469,0,0,1-.281,1.164Z" transform="translate(-451.567 -432.158)" fill="#f0f0f0"/>
      <path id="パス_53" data-name="パス 53" d="M488.711,737.706l-157.48.154a.595.595,0,0,1,0-1.189l157.48-.154a.595.595,0,0,1,0,1.189Z" transform="translate(-330.643 -449.018)" fill="#cacaca"/>
    </g>
    <text id="服の廃棄問題を知る" transform="translate(5311 -3759.761)" fill="#fff" font-size="40" font-family="HiraginoSans-W6, Hiragino Sans"><tspan x="-180" y="0">服の廃棄問題を知る</tspan></text>
    <g id="グループ_29" data-name="グループ 29" transform="translate(24 8)">
      <rect id="長方形_99" data-name="長方形 99" width="133" height="48" rx="24" transform="translate(5110 -3599)" fill="#fff"/>
      <text id="詳細を見る" transform="translate(5177 -3568)" fill="#e67dc8" font-size="18" font-family="HiraginoSans-W6, Hiragino Sans"><tspan x="-45" y="0">詳細を見る</tspan></text>
    </g>
    <text id="アパレル業界の現状問題_MANEKIN利用による廃棄削減量を_知ることができます" data-name="アパレル業界の現状問題、
MANEKIN利用による廃棄削減量を
知ることができます" transform="translate(5133 -3702)" fill="#fff" font-size="24" font-family="HiraginoSans-W6, Hiragino Sans"><tspan x="0" y="0">アパレル業界の現状問題、</tspan><tspan x="0" y="30">MANEKIN利用による廃棄削減量を</tspan><tspan x="0" y="60">知ることができます</tspan></text>
  </g>
</svg>
