<svg xmlns="http://www.w3.org/2000/svg" xmlns:xlink="http://www.w3.org/1999/xlink" width="1366" height="323" viewBox="0 0 1366 323">
  <defs>
    <clipPath id="clip-path">
      <rect id="長方形_64" data-name="長方形 64" width="1366" height="323" transform="translate(778 -1457)" fill="#fff"/>
    </clipPath>
    <clipPath id="clip-path-2">
      <rect id="長方形_67" data-name="長方形 67" width="274" height="254"/>
    </clipPath>
  </defs>
  <g id="グループ_22" data-name="グループ 22" transform="translate(-1427 1229)">
    <g id="マスクグループ_7" data-name="マスクグループ 7" transform="translate(649 228)" clip-path="url(#clip-path)">
      <g id="layered-waves-haikei" transform="translate(778 -1658)">
        <rect id="長方形_63" data-name="長方形 63" width="1366" height="600" fill="#fcaf3c"/>
        <path id="パス_16" data-name="パス 16" d="M0,255l75.889-9.8c75.889-9.9,227.667-29.5,379.444-56.5s303.556-61.4,455.333-54.4,303.555,55.4,379.445,79.5L1366,238V601H0Z" fill="#fcaf3c"/>
        <path id="パス_17" data-name="パス 17" d="M0,127l75.889,17.3c75.889,17.4,227.667,52,379.444,60s303.556-10.6,455.333,4C1062.444,223,1214.222,271,1290.111,295L1366,319V601H0Z" fill="#fda23c"/>
        <path id="パス_18" data-name="パス 18" d="M0,274l75.889,7.7c75.889,7.6,227.667,23,379.444,11.6C607.111,282,758.889,244,910.667,222.8c151.778-21.1,303.555-25.5,379.445-27.6L1366,193V601H0Z" fill="#fd943e"/>
        <path id="パス_19" data-name="パス 19" d="M0,388l75.889-26c75.889-26,227.667-78,379.444-81.7,151.778-3.6,303.556,41,455.333,38.5s303.555-52.1,379.445-77L1366,217V601H0Z" fill="#fb8741"/>
        <path id="パス_20" data-name="パス 20" d="M0,308l75.889,4.8c75.889,4.9,227.667,14.5,379.444,31.5s303.556,41.4,455.333,37.5c151.778-3.8,303.555-35.8,379.445-51.8L1366,314V601H0Z" fill="#f97a45"/>
        <path id="パス_21" data-name="パス 21" d="M0,377l75.889,4.8c75.889,4.9,227.667,14.5,379.444,3s303.556-44.1,455.333-48.1,303.555,20.6,379.445,33L1366,382V601H0Z" fill="#f56d4a"/>
        <path id="パス_22" data-name="パス 22" d="M0,371l75.889,10.5C151.778,392,303.556,413,455.333,420.7c151.778,7.6,303.556,2,455.333-5s303.555-15.4,379.445-19.5L1366,392V601H0Z" fill="#f05f4e"/>
        <path id="パス_23" data-name="パス 23" d="M0,394l75.889-4c75.889-4,227.667-12,379.444-16.5s303.556-5.5,455.333-2.2c151.778,3.4,303.555,11,379.445,14.9L1366,390V601H0Z" fill="#ea5254"/>
        <path id="パス_24" data-name="パス 24" d="M0,500l75.889-9.5C151.778,481,303.556,462,455.333,458s303.556,7,455.333,14.5S1214.222,484,1290.111,486L1366,488V601H0Z" fill="#e34659"/>
        <path id="パス_25" data-name="パス 25" d="M0,485l75.889-.8c75.889-.9,227.667-2.5,379.444.1,151.778,2.7,303.556,9.7,455.333,18,151.778,8.4,303.555,18,379.445,22.9L1366,530v71H0Z" fill="#db3a5e"/>
        <path id="パス_26" data-name="パス 26" d="M0,491l75.889,9c75.889,9,227.667,27,379.444,28.2,151.778,1.1,303.556-14.5,455.333-15.9,151.778-1.3,303.555,11.7,379.445,18.2L1366,537v64H0Z" fill="#d12e63"/>
        <path id="パス_27" data-name="パス 27" d="M0,576l75.889-7.5c75.889-7.5,227.667-22.5,379.444-23.7,151.778-1.1,303.556,11.5,455.333,13.4,151.778,1.8,303.555-7.2,379.445-11.7L1366,542v59H0Z" fill="#c62368"/>
      </g>
    </g>
    <g id="グループ_21" data-name="グループ 21">
      <path id="前面オブジェクトで型抜き_1" data-name="前面オブジェクトで型抜き 1" d="M1374,270H8V0H1374V270ZM699.155,233.245h0v2.508c0,.241.153.363.456.363s.454-.126.454-.363V225.392h.572c.216,0,.351-.174.351-.454s-.135-.456-.351-.456h-5.565c-.216,0-.351.174-.351.456s.135.454.351.454h.742v7.722c-.168.035-.338.059-.5.082l-.24.035a.4.4,0,0,0-.338.429.609.609,0,0,0,.013.143.481.481,0,0,0,.442.429.276.276,0,0,0,.1-.014,26.749,26.749,0,0,0,3.86-.974Zm72.215-2.418c-.22,0-.351.155-.351.416s.128.429.351.429h1.352a7.891,7.891,0,0,1-.572.793.784.784,0,0,0-.209.508.54.54,0,0,0,.443.519,12.128,12.128,0,0,1,1.429.52,6.831,6.831,0,0,1-2.353,1.092.4.4,0,0,0-.337.4,1.026,1.026,0,0,0,.025.179.451.451,0,0,0,.443.341.756.756,0,0,0,.168-.026,7.53,7.53,0,0,0,2.912-1.6,13.031,13.031,0,0,1,1.209.689.532.532,0,0,0,.234.065.474.474,0,0,0,.416-.273.543.543,0,0,0,.078-.273.408.408,0,0,0-.234-.377,10.419,10.419,0,0,0-1.027-.534,5.356,5.356,0,0,0,.975-2.028h.845c.228,0,.365-.16.365-.429s-.14-.416-.365-.416h-3.042a4.854,4.854,0,0,0,.208-.468.3.3,0,0,0,.04-.143c0-.15-.136-.271-.365-.325l-.011,0a.959.959,0,0,0-.184-.024.366.366,0,0,0-.364.274c-.08.205-.174.424-.3.688Zm8.658,2.782h0a11.163,11.163,0,0,0,2.4,2.274.613.613,0,0,0,.3.091.522.522,0,0,0,.417-.221.6.6,0,0,0,.13-.377.454.454,0,0,0-.2-.377,10.1,10.1,0,0,1-2.47-2.21,11.379,11.379,0,0,0,1.482-5.5h.688c.225,0,.365-.169.365-.442s-.148-.454-.377-.454h-3.523a14.559,14.559,0,0,0,.507-1.846.476.476,0,0,0,.013-.131c0-.22-.143-.364-.4-.4a.546.546,0,0,0-.143-.013.39.39,0,0,0-.428.364,12.024,12.024,0,0,1-2.093,5.109.519.519,0,0,0-.117.312.406.406,0,0,0,.182.325.5.5,0,0,0,.312.117.447.447,0,0,0,.364-.208,9.872,9.872,0,0,0,.677-1.119,10.978,10.978,0,0,0,1.364,3.887,8.185,8.185,0,0,1-2.691,2.249.437.437,0,0,0-.234.4.551.551,0,0,0,.091.312.5.5,0,0,0,.417.221.546.546,0,0,0,.311-.091,10.141,10.141,0,0,0,2.651-2.274Zm-62.062-9.464c-.313,0-.507.154-.507.4V235.48c0,.257.194.417.507.417s.52-.16.52-.417V224.548C718.486,224.3,718.282,224.145,717.966,224.145Zm-7.943,10.426c-.215,0-.363.148-.417.416a.56.56,0,0,0-.013.143.466.466,0,0,0,.39.481,8.561,8.561,0,0,0,1.846.182c1.084,0,1.631-.321,1.95-1.144a8.834,8.834,0,0,0,.494-3.094c0-.809-.365-1.17-1.183-1.17H710.05c-.247,0-.338-.06-.338-.221a.633.633,0,0,1,.023-.132l0-.011c.06-.248.121-.547.18-.836l.013-.066c.027-.13.053-.26.08-.386a.3.3,0,0,1,.351-.286H713.2c.728,0,1.053-.313,1.053-1.014v-1.9c0-.691-.335-1.013-1.053-1.013h-4.186c-.228,0-.364.244-.364.48s.136.481.364.481H712.9c.255,0,.364.1.364.325v1.39c0,.271-.139.325-.364.325h-2.808a.905.905,0,0,0-1,.832c-.1.671-.234,1.364-.377,1.95a1.257,1.257,0,0,0-.039.3c0,.453.309.7.871.7h3.263c.406,0,.481.135.481.4a7.479,7.479,0,0,1-.377,2.445c-.19.5-.466.663-1.092.663a5.971,5.971,0,0,1-1.638-.221l-.011,0A.633.633,0,0,0,710.024,234.571Zm-8.958-9.243a.473.473,0,0,0,0,.936h.274a15.37,15.37,0,0,0,1.273,5c.165.343.331.662.508.976a10.928,10.928,0,0,1-2.445,2.443.542.542,0,0,0-.26.442.587.587,0,0,0,.117.325.538.538,0,0,0,.416.221.622.622,0,0,0,.339-.117,11.908,11.908,0,0,0,2.418-2.418,9.781,9.781,0,0,0,2.379,2.366.6.6,0,0,0,.325.1.517.517,0,0,0,.4-.234.636.636,0,0,0,.117-.351.463.463,0,0,0-.221-.4,10.1,10.1,0,0,1-2.4-2.34c.105-.158.2-.322.288-.467.047-.078.093-.157.141-.235a14.691,14.691,0,0,0,1.677-4.94l.005-.048a2.739,2.739,0,0,0,.021-.29c0-.656-.374-.975-1.144-.975Zm45.942,3.094a.453.453,0,0,0-.468.507c0,.324.179.534.456.534h4.888a5.9,5.9,0,0,1-.78,3.159,4.233,4.233,0,0,1-2.639,1.846.513.513,0,0,0-.377.519.73.73,0,0,0,.039.234.483.483,0,0,0,.482.312,1.158,1.158,0,0,0,.286-.039,5.249,5.249,0,0,0,3.133-2.2,6.921,6.921,0,0,0,1.013-3.835h4.121c.285,0,.455-.2.455-.534a.449.449,0,0,0-.468-.507Zm-7.93.741v5.864c0,.322.213.507.585.507.353,0,.572-.189.572-.494v-6.63a18.428,18.428,0,0,0,3.263-2.848.577.577,0,0,0,.143-.351.537.537,0,0,0-.234-.428.6.6,0,0,0-.377-.13.619.619,0,0,0-.442.208,16.03,16.03,0,0,1-3.536,3,21.608,21.608,0,0,1-5,2.418.555.555,0,0,0-.39.519.968.968,0,0,0,.026.2.5.5,0,0,0,.481.363.8.8,0,0,0,.286-.051,23.53,23.53,0,0,0,4.626-2.145Zm-12.584-1.689a.528.528,0,0,0-.6.559,9.143,9.143,0,0,1-.662,4.055,4.664,4.664,0,0,1-2.783,2.366.487.487,0,0,0-.376.468.659.659,0,0,0,.051.26.491.491,0,0,0,.468.339.682.682,0,0,0,.274-.052,5.7,5.7,0,0,0,3.379-2.86,10.146,10.146,0,0,0,.819-4.6A.5.5,0,0,0,726.494,227.473Zm41.665,6.331h0l0,.006c.187.423.335.758.465,1.137a.47.47,0,0,0,.455.325.613.613,0,0,0,.26-.052.559.559,0,0,0,.416-.533.9.9,0,0,0-.078-.337,33.833,33.833,0,0,0-3.055-5.838.615.615,0,0,0-.768-.234.463.463,0,0,0-.26.429.553.553,0,0,0,.078.273,38.783,38.783,0,0,1,2.094,3.835,50.817,50.817,0,0,1-6.617.7,51.844,51.844,0,0,0,3.107-8.216.8.8,0,0,0,.026-.182.557.557,0,0,0-.482-.559.756.756,0,0,0-.168-.013c-.272,0-.432.14-.52.454a48.791,48.791,0,0,1-3.172,8.567h-.468c-.153,0-.311,0-.468.013a.509.509,0,0,0-.481.572v.065a.525.525,0,0,0,.559.52h.052a66.808,66.808,0,0,0,9.021-.936Zm138.458-1.3v0a5.814,5.814,0,0,0-.088.888v1.363c0,.194.129.3.374.3.262,0,.407-.105.407-.3V233.4a4.889,4.889,0,0,0-.1-.9,8.454,8.454,0,0,0,4.3,2.266.376.376,0,0,0,.11.011.386.386,0,0,0,.374-.3.5.5,0,0,0,.012-.131.338.338,0,0,0-.265-.364,9.286,9.286,0,0,1-3.849-1.7h3.75c.183,0,.3-.139.3-.363s-.114-.341-.3-.341H907.3v-.649h2.155c.656,0,.935-.263.935-.88v-.649h1.364c.183,0,.3-.131.3-.341s-.114-.341-.3-.341h-1.364v-.385c0-.182-.133-.275-.4-.275s-.4.092-.4.275v.385h-2.3v-.495c0-.191-.122-.275-.4-.275s-.374.082-.374.275v.495h-2.178v-.363c0-.2-.141-.309-.4-.309s-.4.1-.4.309v.363h-1.386a.3.3,0,0,0-.3.341c0,.217.108.341.3.341h1.386v.649c0,.625.268.88.923.88h2.047v.649h-4.257c-.18,0-.3.138-.3.352s.117.352.3.352h3.685a9.057,9.057,0,0,1-3.7,1.727.337.337,0,0,0-.3.341.572.572,0,0,0,.016.113l.006.03a.372.372,0,0,0,.352.308.255.255,0,0,0,.121-.023,8.146,8.146,0,0,0,4.156-2.263Zm-13.63-1.145c-.185,0-.286.125-.286.353s.1.352.286.352h2a2.086,2.086,0,0,1-.419,1.012,3.249,3.249,0,0,1-1.837,1.068.341.341,0,0,0-.274.341.621.621,0,0,0,.032.186.36.36,0,0,0,.364.265,1,1,0,0,0,.175-.022,4.377,4.377,0,0,0,2.189-1.419,3.242,3.242,0,0,0,.562-1.43h1.529v1.848c0,.666.349.869,1.5.869,1.226,0,1.561-.109,1.793-.583a2.959,2.959,0,0,0,.231-1.155v-.033c0-.206-.109-.307-.352-.33h-.033a.321.321,0,0,0-.363.286,2.867,2.867,0,0,1-.111.759c-.084.277-.308.32-1.033.32-.742,0-.848-.082-.848-.385v-1.595h2.519c.179,0,.286-.132.286-.352s-.107-.353-.286-.353h-2.519v-1.188h.737c.154,0,.253-.129.253-.329a.457.457,0,0,0-.033-.176,8.848,8.848,0,0,0,1.54.726l.027.005a.593.593,0,0,0,.116.016.371.371,0,0,0,.363-.3.552.552,0,0,0,.033-.165.33.33,0,0,0-.265-.341,6.873,6.873,0,0,1-1.419-.6,9.652,9.652,0,0,0,1.155-.946.323.323,0,0,0,.11-.231.379.379,0,0,0-.165-.286.421.421,0,0,0-.264-.1.3.3,0,0,0-.253.122,7.75,7.75,0,0,1-1.211,1.066,7.149,7.149,0,0,1-.649-.506,8.594,8.594,0,0,0,1.133-.913.382.382,0,0,0,.132-.275.321.321,0,0,0-.143-.253.445.445,0,0,0-.265-.1.368.368,0,0,0-.285.132,7.149,7.149,0,0,1-1.067.923,3.63,3.63,0,0,1-.418-.517.833.833,0,0,0-.836-.4H894.3a.275.275,0,0,0-.3.308c0,.213.106.33.3.33h1.551c.075,0,.11.01.11.032s-.018.052-.066.111a6.218,6.218,0,0,1-1.078,1.066,9.721,9.721,0,0,0-1.3-1.1.3.3,0,0,0-.187-.066.379.379,0,0,0-.264.131.389.389,0,0,0-.121.265.254.254,0,0,0,.1.209,9.965,9.965,0,0,1,1.2.967,6.675,6.675,0,0,1-1.43.7.35.35,0,0,0-.242.341.427.427,0,0,0,.033.165.369.369,0,0,0,.341.253.424.424,0,0,0,.153-.033,9,9,0,0,0,1.365-.715.578.578,0,0,0-.022.143c0,.206.094.329.253.329h.418c0,.4-.011.8-.033,1.188Zm21.241-3.607c-.608,0-.879.268-.879.868V234.6c0,.2.152.319.4.319.269,0,.418-.113.418-.319v-2.321h3.389v1.4c0,.278-.068.33-.429.33a3.8,3.8,0,0,1-.737-.088.187.187,0,0,0-.077-.011.335.335,0,0,0-.341.318v.077a.342.342,0,0,0,.285.363,5.131,5.131,0,0,0,.958.088c.773,0,1.133-.29,1.133-.913v-5.215c0-.608-.275-.879-.892-.879h-1.165V225c0-.2-.161-.319-.429-.319s-.428.119-.428.319v2.75ZM869.383,234a.3.3,0,0,0-.309.286.456.456,0,0,0-.011.121.334.334,0,0,0,.274.352,3.376,3.376,0,0,0,.793.077c.784,0,1.089-.275,1.089-.979v-3.245a10.788,10.788,0,0,0,1-.451.353.353,0,0,0,.209-.329.409.409,0,0,0-.044-.187.319.319,0,0,0-.286-.231.42.42,0,0,0-.154.033c-.219.109-.463.22-.725.329V227.62h.869c.193,0,.308-.144.308-.385s-.112-.374-.308-.374h-.869v-1.87c0-.206-.141-.32-.4-.32s-.408.117-.408.32v1.87h-1.209c-.19,0-.308.143-.308.374s.115.385.308.385h1.209v2.475c-.424.17-.872.325-1.331.462a.307.307,0,0,0-.241.319.55.55,0,0,0,.032.176.371.371,0,0,0,.364.3.563.563,0,0,0,.129-.021l.294-.108.016-.006c.242-.089.492-.18.737-.272V233.7c0,.268-.057.363-.373.363a3.732,3.732,0,0,1-.55-.055A.382.382,0,0,0,869.383,234Zm13.079-4.334a.333.333,0,0,0-.364.286,6.823,6.823,0,0,1-1.947,4.1.442.442,0,0,0,.044.627.46.46,0,0,0,.308.121.409.409,0,0,0,.308-.143,7.752,7.752,0,0,0,1.464-2.266,4.073,4.073,0,0,0,3.124,2,13.579,13.579,0,0,0,2.332.165c.6,0,1.147-.014,1.683-.044a.385.385,0,0,0,.4-.418v-.033c0-.273-.129-.418-.373-.418h-.023c-.9.053-1.562.077-2.145.077a10.718,10.718,0,0,1-1.815-.121v-2.332h2.937c.175,0,.3-.163.3-.4s-.119-.374-.3-.374h-2.937v-1.716h2.794c.184,0,.308-.159.308-.4s-.118-.373-.308-.373H881.67c-.19,0-.308.143-.308.373s.124.4.308.4h2.948v4.6a3.651,3.651,0,0,1-2.035-1.814,8.892,8.892,0,0,0,.352-1.441.181.181,0,0,0,.012-.077.39.39,0,0,0-.353-.374A.546.546,0,0,0,882.462,229.666Zm45.023-3.564c-.656,0-.935.276-.935.924a37.865,37.865,0,0,1-.186,4.587,7.091,7.091,0,0,1-.749,2.508.481.481,0,0,0-.076.253.369.369,0,0,0,.209.341.437.437,0,0,0,.638-.209,8.01,8.01,0,0,0,.771-2.761,37.8,37.8,0,0,0,.209-4.531c0-.293.061-.352.363-.352h3.223a28.809,28.809,0,0,0,.341,4.081c.054.333.129.638.209.946a7.39,7.39,0,0,1-1.859,2.09.51.51,0,0,0-.21.374.388.388,0,0,0,.088.242.4.4,0,0,0,.308.154.451.451,0,0,0,.3-.122,7.77,7.77,0,0,0,1.671-1.814,5.076,5.076,0,0,0,.88,1.54.843.843,0,0,0,.627.319.622.622,0,0,0,.55-.352,3.978,3.978,0,0,0,.363-1.65v-.033a.308.308,0,0,0-.3-.341h-.076a.3.3,0,0,0-.33.32,4.721,4.721,0,0,1-.143.957c-.036.1-.07.132-.121.132a.216.216,0,0,1-.154-.11,4.885,4.885,0,0,1-.781-1.64c.053-.1.107-.21.16-.318l.01-.022.06-.122a13.4,13.4,0,0,0,.99-3.135.291.291,0,0,0,.012-.1.338.338,0,0,0-.319-.352.347.347,0,0,0-.11-.012.335.335,0,0,0-.352.309,12.589,12.589,0,0,1-.726,2.606l-.011-.066a27.913,27.913,0,0,1-.3-3.883h2c.19,0,.309-.143.309-.374s-.121-.385-.309-.385h-.3a.454.454,0,0,0,.242-.143.366.366,0,0,0,.055-.186.393.393,0,0,0-.131-.286,5.408,5.408,0,0,0-1.045-.638.347.347,0,0,0-.154-.033.4.4,0,0,0-.309.165.361.361,0,0,0-.066.2.317.317,0,0,0,.154.264,4.9,4.9,0,0,1,.957.583.288.288,0,0,0,.166.077H931.73c-.011-.341-.011-.693-.011-1.066,0-.191-.156-.309-.407-.309s-.385.11-.385.309c0,.367,0,.714.011,1.066Zm-34.892-.6a.959.959,0,0,0-1.067,1.078c0,1.3-.01,3.169-.1,4.388a7.765,7.765,0,0,1-.7,3.058.828.828,0,0,0-.087.33.386.386,0,0,0,.242.363.578.578,0,0,0,.219.055.441.441,0,0,0,.4-.308,8.23,8.23,0,0,0,.771-3.267c.091-1.335.11-3.2.11-4.521,0-.341.12-.451.495-.451h7.821c.186,0,.3-.136.3-.364s-.111-.363-.3-.363H896.64v-.539c0-.217-.156-.341-.429-.341s-.418.124-.418.341v.539Zm32.792,5.412a.35.35,0,0,0-.352.275,12.383,12.383,0,0,1-1.188,2.893.483.483,0,0,0-.078.253.351.351,0,0,0,.209.32.535.535,0,0,0,.242.066.44.44,0,0,0,.4-.253,14.736,14.736,0,0,0,1.221-3.08.308.308,0,0,0,.011-.1.37.37,0,0,0-.3-.352A.987.987,0,0,0,925.384,230.908Zm-5.049,2.9a.346.346,0,0,0-.341.33.307.307,0,0,0-.011.1.354.354,0,0,0,.308.373,5.911,5.911,0,0,0,1.122.1c.855,0,1.254-.321,1.254-1.012v-8.624c0-.2-.16-.319-.429-.319s-.44.125-.44.319v8.426c0,.351-.084.418-.527.418a3.956,3.956,0,0,1-.847-.1A.281.281,0,0,0,920.335,233.813Zm14.817.187c-.165,0-.264.119-.264.319s.094.32.264.32h9.581c.156,0,.253-.122.253-.32s-.1-.319-.253-.319h-4.477v-.649h3.718c.136,0,.231-.122.231-.3,0-.154-.079-.309-.231-.309h-3.718v-.527h2.673c.578,0,.836-.221.836-.715v-1.452c0-.48-.266-.7-.836-.7h-5.94c-.562,0-.824.224-.824.7V231.5c0,.495.254.715.824.715h2.542v.527h-3.542c-.152,0-.231.155-.231.309,0,.175.1.3.231.3h3.542V234Zm-62.174-5.673h0a10.62,10.62,0,0,0-.088,1.293v4.015c0,.647.292.935.946.935h4.873c.174,0,.286-.151.286-.384s-.112-.363-.286-.363h-2.233v-1.848h1.881c.174,0,.286-.142.286-.363s-.112-.363-.286-.363h-1.881V229.6h1.881c.174,0,.286-.142.286-.363s-.115-.363-.286-.363h-1.881v-1.562h2.035c.174,0,.286-.151.286-.385s-.112-.363-.286-.363h-1.881a7.958,7.958,0,0,0,.6-1.3.523.523,0,0,0,.033-.176c0-.157-.112-.273-.309-.32a.538.538,0,0,0-.131-.011.359.359,0,0,0-.363.275,10.987,10.987,0,0,1-.66,1.529h-1.177a3.2,3.2,0,0,0-.561.055,11.028,11.028,0,0,0,.627-1.4.433.433,0,0,0,.033-.154.33.33,0,0,0-.3-.329.807.807,0,0,0-.165-.022.338.338,0,0,0-.352.253,9.591,9.591,0,0,1-1.881,3.311.492.492,0,0,0-.143.33.408.408,0,0,0,.132.286.4.4,0,0,0,.264.11.489.489,0,0,0,.352-.187A4.258,4.258,0,0,0,872.977,228.327Zm55.662,1.163c-.531,0-.747.217-.747.748v2.1c0,.531.216.748.747.748h1.166c.531,0,.748-.217.748-.748v-2.1c0-.531-.217-.748-.748-.748Zm-8.711-4.246c-.265,0-.429.114-.429.3v6.413c0,.188.168.309.429.309s.429-.118.429-.309v-6.4C920.356,225.362,920.192,225.244,919.928,225.244Zm-197.893-.02c-.293,0-.468.2-.468.545s.162.534.468.534h8.555c.276,0,.428.111.428.312a.863.863,0,0,1-.091.325,5.985,5.985,0,0,1-2.834,2.523.539.539,0,0,0-.325.493.594.594,0,0,0,.078.286.481.481,0,0,0,.442.247.821.821,0,0,0,.286-.066,6.778,6.778,0,0,0,3.406-3.159,2,2,0,0,0,.2-.819,1.221,1.221,0,0,0-.22-.727,1.353,1.353,0,0,0-1.158-.494Zm49.361,1.4c-.194,0-.325.167-.325.416s.128.39.325.39h1.937a6.266,6.266,0,0,1-2.041,1.9.385.385,0,0,0-.221.339.583.583,0,0,0,.065.234.41.41,0,0,0,.377.234.546.546,0,0,0,.273-.078,6.925,6.925,0,0,0,2.184-2.327,4.393,4.393,0,0,0-.078.78v.936c0,.218.162.339.455.339s.442-.123.442-.339v-.9a6.476,6.476,0,0,0-.065-.818,4.936,4.936,0,0,0,1.3,1.481.551.551,0,0,0,.273.091.431.431,0,0,0,.339-.208.53.53,0,0,0,.065-.234.383.383,0,0,0-.2-.337,4.957,4.957,0,0,1-1.235-1.092H777.1a.351.351,0,0,0,.337-.39c0-.245-.139-.416-.337-.416h-2.314v-2.314c0-.215-.161-.338-.442-.338s-.455.12-.455.338v2.314Zm152.8,1.057a.4.4,0,0,0-.308.143.381.381,0,0,0-.111.276.369.369,0,0,0,.166.308,8.513,8.513,0,0,1,1.254,1.034.4.4,0,0,0,.286.121.488.488,0,0,0,.341-.154.42.42,0,0,0,.1-.275.443.443,0,0,0-.132-.32,7.736,7.736,0,0,0-1.32-1.045A.539.539,0,0,0,924.2,227.686Zm10.945.518c-.156,0-.253.118-.253.308,0,.207.094.33.253.33h9.614c.158,0,.253-.124.253-.33s-.095-.308-.253-.308Zm-7.172-.385c-.2,0-.286.182-.286.363,0,.227.112.374.286.374h2.42c.2,0,.286-.194.286-.374s-.089-.363-.286-.363Zm-46.53-1.089h7.04c.249,0,.341.083.341.308v.935c0,.2.169.318.451.318s.429-.116.429-.318v-1.133c0-.616-.292-.891-.946-.891H885.31v-.868c0-.234-.144-.353-.428-.353s-.429.125-.429.353v.868h-3.289c-.655,0-.947.275-.947.891v1.133c0,.2.16.318.429.318s.451-.119.451-.318v-.935C881.1,226.818,881.2,226.729,881.438,226.729Zm28.446.77h0a7.834,7.834,0,0,1,.7.561.427.427,0,0,0,.286.11.436.436,0,0,0,.308-.132.3.3,0,0,0,.088-.209.345.345,0,0,0-.143-.274,18.04,18.04,0,0,0-2-1.3h2.487a.314.314,0,0,0,.308-.352c0-.22-.121-.363-.308-.363h-4.29v-.649c0-.216-.128-.308-.429-.308s-.429.1-.429.308v.649h-4.125c-.178,0-.3.146-.3.363s.111.352.3.352H905.4a7.207,7.207,0,0,1-.869.88h-.473c-.4,0-.781,0-1.156-.011-.208,0-.319.118-.319.341a.319.319,0,0,0,.33.363C905.589,227.816,907.871,227.708,909.884,227.5Zm26.95-2.475c-.569,0-.858.244-.858.726v1.232c0,.481.281.715.858.715h6.2c.592,0,.879-.234.879-.715V225.75c0-.482-.3-.726-.879-.726Zm-18.744.044a.319.319,0,0,0-.319.21,7.809,7.809,0,0,1-.781,1.572.392.392,0,0,0-.066.21.336.336,0,0,0,.187.3.585.585,0,0,0,.219.055.413.413,0,0,0,.352-.2,8.257,8.257,0,0,0,.836-1.639l0-.007a.532.532,0,0,0,.021-.126.361.361,0,0,0-.275-.341A.505.505,0,0,0,918.091,225.068Zm-4.543.012a.457.457,0,0,0-.231.066.377.377,0,0,0-.2.308.386.386,0,0,0,.066.209,8.774,8.774,0,0,1,.825,1.529.345.345,0,0,0,.33.209.489.489,0,0,0,.209-.055.364.364,0,0,0,.209-.495,10.688,10.688,0,0,0-.869-1.605A.4.4,0,0,0,913.548,225.079Zm11.088-.143a.45.45,0,0,0-.44.44.292.292,0,0,0,.121.241,12.171,12.171,0,0,1,1.3,1.112.422.422,0,0,0,.3.12.461.461,0,0,0,.32-.131.42.42,0,0,0,.12-.286.484.484,0,0,0-.154-.33,9.687,9.687,0,0,0-1.276-1.078A.612.612,0,0,0,924.636,224.936Zm-148-.609a.335.335,0,0,0-.325.208,5.907,5.907,0,0,1-.754,1.248.345.345,0,0,0-.078.208.369.369,0,0,0,.2.312.531.531,0,0,0,.286.091.365.365,0,0,0,.3-.157,6.542,6.542,0,0,0,.845-1.326.506.506,0,0,0,.039-.182.364.364,0,0,0-.26-.351A.612.612,0,0,0,776.635,224.327Zm-4.511,0a.571.571,0,0,0-.3.091.388.388,0,0,0-.195.325.356.356,0,0,0,.065.2,6.1,6.1,0,0,1,.69,1.222.317.317,0,0,0,.3.156.692.692,0,0,0,.26-.065.447.447,0,0,0,.234-.365.352.352,0,0,0-.013-.117,6.294,6.294,0,0,0-.728-1.3A.392.392,0,0,0,772.124,224.327Zm-24.011.819c-.289,0-.468.2-.468.533a.5.5,0,0,0,.468.546h7.9a.5.5,0,0,0,.468-.546c0-.334-.175-.533-.468-.533ZM965.695,206.76a1.116,1.116,0,0,0-.638.22.987.987,0,0,0-.419.77.818.818,0,0,0,.176.484c.661.853,2.018,1.87,4.729,1.87a5.578,5.578,0,0,0,3.872-1.2c1.124-1,1.694-2.686,1.694-5V193.714c0-.576-.327-.88-.946-.88-.592,0-.946.3-.946.792v.66a5.941,5.941,0,0,0,.054.607c.014.119.026.215.033.295a4.016,4.016,0,0,0-3.872-2.507c-3.3,0-5.346,2.428-5.346,6.336a6.574,6.574,0,0,0,1.479,4.425,4.931,4.931,0,0,0,3.823,1.669,4.185,4.185,0,0,0,3.916-2.354,9.4,9.4,0,0,0-.087,1.057c-.023,3.34-1.078,4.641-3.762,4.641a3.806,3.806,0,0,1-3.125-1.408A.82.82,0,0,0,965.695,206.76ZM765.4,168a10.883,10.883,0,0,0-5.513,1.4,12.445,12.445,0,0,0-4.217,4.209c-2.368,3.724-3.568,8.4-3.568,13.908a25.737,25.737,0,0,0,3.538,13.725,12.46,12.46,0,0,0,4.2,4.3,11.4,11.4,0,0,0,11.057.008,12.42,12.42,0,0,0,4.2-4.278,28.629,28.629,0,0,0,0-27.572,12.447,12.447,0,0,0-4.193-4.277A10.7,10.7,0,0,0,765.4,168Zm-28.365,0a10.881,10.881,0,0,0-5.513,1.4,12.455,12.455,0,0,0-4.217,4.209c-2.368,3.724-3.569,8.4-3.569,13.908a25.739,25.739,0,0,0,3.539,13.725,12.452,12.452,0,0,0,4.2,4.3,11.4,11.4,0,0,0,11.056.008,12.425,12.425,0,0,0,4.2-4.278,28.63,28.63,0,0,0,0-27.572,12.453,12.453,0,0,0-4.194-4.277A10.7,10.7,0,0,0,737.031,168Zm-41.053,27.328a10.936,10.936,0,0,0,3.6,8.3,12.305,12.305,0,0,0,8.663,3.355,12.576,12.576,0,0,0,8.876-3.2,11.187,11.187,0,0,0,3.446-8.571,12.292,12.292,0,0,0-1.19-5.734,7.165,7.165,0,0,0-3.569-3.294,7.437,7.437,0,0,0,2.654-3.126,11.108,11.108,0,0,0,.884-4.621,10.105,10.105,0,0,0-2.928-7.625,12.164,12.164,0,0,0-15.616.061,12.085,12.085,0,0,0-3.477,7.807h5.917a6.224,6.224,0,0,1,1.274-4.255,5.854,5.854,0,0,1,7.64,0,6.222,6.222,0,0,1,1.274,4.255,5.353,5.353,0,0,1-1.678,4,5.586,5.586,0,0,1-3.995,1.616h-.793v4.208l1.342-.122a2.017,2.017,0,0,1,.488-.061,5.11,5.11,0,0,1,3.934,2.044,6.723,6.723,0,0,1,1.739,4.423,7.582,7.582,0,0,1-1.617,4.88,5.29,5.29,0,0,1-4.331,2.012,5.993,5.993,0,0,1-4.484-1.83,6.27,6.27,0,0,1-1.769-4.514Zm225-26.706a10.7,10.7,0,0,0-5.422,1.38,12.248,12.248,0,0,0-4.147,4.141,28.172,28.172,0,0,0-.031,27.18,12.256,12.256,0,0,0,4.133,4.229,11.216,11.216,0,0,0,10.875.008,12.218,12.218,0,0,0,4.133-4.207,28.155,28.155,0,0,0,0-27.12,12.244,12.244,0,0,0-4.125-4.208A10.527,10.527,0,0,0,920.98,168.62ZM880.6,195.5a10.758,10.758,0,0,0,3.54,8.16,12.105,12.105,0,0,0,8.52,3.3,12.364,12.364,0,0,0,8.729-3.15,11,11,0,0,0,3.39-8.429,12.1,12.1,0,0,0-1.17-5.64,7.049,7.049,0,0,0-3.51-3.24,7.315,7.315,0,0,0,2.61-3.075,10.925,10.925,0,0,0,.87-4.545,9.94,9.94,0,0,0-2.88-7.5,11.965,11.965,0,0,0-15.36.06,11.894,11.894,0,0,0-3.42,7.68h5.82a6.122,6.122,0,0,1,1.253-4.185,5.757,5.757,0,0,1,7.515,0,6.122,6.122,0,0,1,1.252,4.185,5.265,5.265,0,0,1-1.65,3.93,5.494,5.494,0,0,1-3.93,1.589h-.78v4.14l1.32-.12a2.006,2.006,0,0,1,.481-.06,5.031,5.031,0,0,1,3.87,2.011,6.618,6.618,0,0,1,1.71,4.35,7.454,7.454,0,0,1-1.59,4.8,5.2,5.2,0,0,1-4.26,1.98,5.893,5.893,0,0,1-4.41-1.8,6.166,6.166,0,0,1-1.741-4.44Zm-83.433,3.552h0a19.358,19.358,0,0,0-.147,2.112v2.562c0,1.134.534,1.617,1.786,1.617h8.967c1.266,0,1.806-.484,1.806-1.617V197.91c0-1.118-.54-1.6-1.806-1.6h-8.358a2.7,2.7,0,0,0-1.071.21c.172-.563.3-1,.42-1.449h12.222a.557.557,0,0,0,.567-.63c0-.4-.207-.63-.567-.63h-8.379v-1.386h6.53c.315,0,.526-.253.526-.63s-.206-.609-.526-.609h-6.53v-1.365h7.539a.555.555,0,0,0,.545-.63c0-.395-.2-.63-.545-.63h-4.7a11.5,11.5,0,0,0,1.281-1.533.617.617,0,0,0,.105-.315c0-.235-.172-.421-.483-.525l-.046-.007a2.416,2.416,0,0,0-.332-.035.731.731,0,0,0-.651.336,13.578,13.578,0,0,1-1.575,2.079h-3.591a18.215,18.215,0,0,0-1.491-2.142.682.682,0,0,0-.567-.273,1.1,1.1,0,0,0-.419.105.584.584,0,0,0-.4.525.5.5,0,0,0,.105.294c.349.409.751.939,1.134,1.49h-4.683c-.36,0-.567.23-.567.63a.557.557,0,0,0,.567.63h7.349v1.365h-6.363c-.328,0-.525.228-.525.609s.2.63.525.63h6.363v1.386h-8.148c-.36,0-.567.23-.567.63a.557.557,0,0,0,.567.63h4.116a15.253,15.253,0,0,1-1.777,4.407,14.687,14.687,0,0,1-2.8,3.447.863.863,0,0,0-.294.652.819.819,0,0,0,.252.567.892.892,0,0,0,.63.273.96.96,0,0,0,.672-.315A15.205,15.205,0,0,0,797.168,199.052Zm159.375.162h0l4.091,5.719a.905.905,0,0,0,.748.352,1.09,1.09,0,0,0,.594-.154,1.038,1.038,0,0,0,.507-.836.793.793,0,0,0-.155-.484l-4.378-5.83,3.718-3.476a.844.844,0,0,0,.286-.617,1.153,1.153,0,0,0-.33-.726.9.9,0,0,0-.725-.329.935.935,0,0,0-.661.286l-5.368,5.346V188.7c0-.525-.344-.814-.968-.814-.643,0-1.012.313-1.012.858v15.665c0,.567.352.879.99.879s.99-.321.99-.879V200.82l1.672-1.6Zm-65.6-85.209v33.035a5.512,5.512,0,0,0,5.506,5.505H918.47a5.512,5.512,0,0,0,5.506-5.505V114.006ZM721.18,122.711h0v28.342a1.427,1.427,0,0,0,1.492,1.491H754a1.427,1.427,0,0,0,1.492-1.491V122.711l6.444,1.581a4.19,4.19,0,0,0,.73.074,1.8,1.8,0,0,0,1.448-.715l8.04-11.965a1.579,1.579,0,0,0,.284-1.283,1.612,1.612,0,0,0-.835-1.029l-16.111-7.548h-7.459a1.427,1.427,0,0,0-1.491,1.492c0,1.4-.929,2.741-2.615,3.783a9.95,9.95,0,0,1-4.919,1.467,9.6,9.6,0,0,1-4.844-1.473,4.686,4.686,0,0,1-2.54-3.777,1.427,1.427,0,0,0-1.491-1.492h-7.459l-16.275,7.7a1.441,1.441,0,0,0-.82.955,1.5,1.5,0,0,0,.209,1.253l7.981,11.934a1.4,1.4,0,0,0,1.183.712,1.491,1.491,0,0,0,.443-.07l5.786-1.6Zm167.008-16.965v5.506h38.542v-5.506h-9.635l-2.753-2.752H900.576l-2.753,2.752Zm-12.48,128.077h-1.683c-.252,0-.341-.086-.341-.329v-1.518h2.024v1.847Zm-101.178-.488h0c-.417-.162-.9-.344-1.326-.468-.149-.04-.207-.081-.207-.143a.4.4,0,0,1,.117-.194,6.728,6.728,0,0,0,.585-.859h1.716a4.277,4.277,0,0,1-.883,1.664Zm-77.8-.377h0V230.71h2.431v1.638c-.819.242-1.636.447-2.43.611Zm232.828-.521h-.671c-.163,0-.265-.042-.265-.253V230.4c0-.21.1-.253.265-.253h.671c.2,0,.274.066.274.253v1.782C929.827,232.372,929.755,232.438,929.552,232.438Zm-149.512-.532v0a12.72,12.72,0,0,1-1.312-4.2,4.106,4.106,0,0,0,.182-.417h2.223a10.255,10.255,0,0,1-1.092,4.614Zm162.7-.249h-2.486v-.6h2.772v.4C943.027,231.622,942.918,231.656,942.741,231.656Zm-3.211,0h-2.344c-.177,0-.286-.035-.286-.209v-.4h2.63v.6Zm-21.978-.11h-3.389v-1.155h3.389v1.154Zm-20.24-.187h-1.453c.03-.354.044-.731.044-1.188h1.409v1.187Zm-193.594-.012h0c-.033-.06-.065-.122-.1-.185l-.016-.032,0-.009c-.038-.073-.076-.145-.114-.215a15.171,15.171,0,0,1-1.274-4.641h2.783c.292,0,.39.069.39.273a.77.77,0,0,1-.013.168,12.838,12.838,0,0,1-1.469,4.329c-.032.052-.061.1-.091.157s-.057.1-.09.154Zm171.989-.1h-2.024V229.6h2.024v1.649Zm67.32-.759h-2.772v-.583h2.486c.2,0,.286.066.286.221v.362Zm-3.5,0H936.9v-.363c0-.155.086-.221.286-.221h2.344v.582Zm-30.262-.231H907.3v-.869h2.3v.582C909.6,230.179,909.506,230.26,909.268,230.26Zm-2.739,0h-1.849c-.237,0-.329-.08-.329-.286v-.582h2.178v.868Zm-207.375-.4h-2.431v-1.82h2.431v1.819Zm218.4-.21h-3.389v-.891c0-.187.086-.264.3-.264h2.794c.184,0,.3.044.3.264v.89Zm-18.744-.143h-4.07a8.422,8.422,0,0,0,1.991-1.914,8.522,8.522,0,0,0,2.076,1.912Zm-23.1-.638h-2.024v-1.232c0-.243.089-.329.341-.329h1.683v1.561Zm-176.552-1.648h-2.431v-1.833h2.431v1.832Zm243.718-.09h-5.863c-.192,0-.3-.078-.3-.219v-.286h6.468v.286C943.181,227.054,943.066,227.136,942.873,227.136Zm-37.375-.011h0l0,0a9.237,9.237,0,0,0,.867-.868h2.145a.311.311,0,0,0-.1.21.228.228,0,0,0,.132.209c.167.084.326.179.48.271l.011.007.014.008c-.979.1-1.982.125-2.952.149l-.1,0Zm37.683-1.045h-6.468v-.265c0-.14.108-.219.3-.219h5.863c.193,0,.308.082.308.219v.264Zm-135.742-22h-8.3c-.433,0-.609-.158-.609-.546v-.966h9.513v.966C808.048,203.926,807.872,204.084,807.44,204.084Zm162.215-.581a3.174,3.174,0,0,1-2.539-1.2,5.144,5.144,0,0,1-1-3.291,5.629,5.629,0,0,1,.94-3.4,3.156,3.156,0,0,1,2.624-1.268,3.206,3.206,0,0,1,2.634,1.274,5.257,5.257,0,0,1,.951,3.237,5.489,5.489,0,0,1-.962,3.344A3.2,3.2,0,0,1,969.655,203.5ZM921.04,201.74c-2.19,0-3.946-1.423-5.22-4.23a25.249,25.249,0,0,1,0-19.319c1.274-2.887,3-4.351,5.13-4.351s3.856,1.4,5.13,4.171a23.218,23.218,0,0,1,1.92,9.75,24.039,24.039,0,0,1-1.83,10.02C924.956,200.407,923.23,201.74,921.04,201.74Zm-155.584-.071a4.666,4.666,0,0,1-3-1.075,8.721,8.721,0,0,1-2.3-3.226,25.677,25.677,0,0,1,0-19.641,9.121,9.121,0,0,1,2.28-3.317,4.441,4.441,0,0,1,2.936-1.105c2.165,0,3.92,1.426,5.216,4.239a23.609,23.609,0,0,1,1.952,9.913,24.422,24.422,0,0,1-1.861,10.187C769.438,200.314,767.683,201.668,765.456,201.668Zm-28.364,0a4.667,4.667,0,0,1-3-1.075,8.721,8.721,0,0,1-2.3-3.226,25.678,25.678,0,0,1,0-19.641c1.3-2.935,3.05-4.423,5.215-4.423s3.92,1.426,5.216,4.239a23.606,23.606,0,0,1,1.952,9.913,24.438,24.438,0,0,1-1.86,10.187C741.073,200.314,739.318,201.668,737.092,201.668Zm70.956-.273h-9.513v-1.344h9.513v1.343Zm0-2.52h-9.513v-.819c0-.383.165-.525.609-.525h8.3c.443,0,.608.142.608.525v.818Z" transform="translate(1419 -1202)" fill="#fff"/>
      <g id="アートボード_14" data-name="アートボード – 14" transform="translate(1715 -1202)" clip-path="url(#clip-path-2)">
        <g id="グループ_155" data-name="グループ 155" transform="translate(71.566 49.719)">
          <path id="パス_472" data-name="パス 472" d="M0-.451l31.721,20.33L0,37.993Z" transform="translate(0.023 73.685)" fill="#033654"/>
          <path id="パス_473" data-name="パス 473" d="M27.444,5.053-3.1,20.527,27.575,40.383Z" transform="translate(3.96 51.026)" fill="#005789"/>
          <path id="パス_474" data-name="パス 474" d="M13.743,3.354-6.133,36.162l29.81-15.444Z" transform="translate(6.961 33.528)" fill="#0a727b"/>
          <path id="パス_475" data-name="パス 475" d="M-4.639-16.483-4.816,49l19.3-32.921Z" transform="translate(4.816 18.273)" fill="#0a727b"/>
          <path id="パス_476" data-name="パス 476" d="M-26.271.863-7.468,33,1.98,17.232Z" transform="translate(27.898 -0.863)" fill="#016037"/>
          <path id="パス_477" data-name="パス 477" d="M-35.705.238l-9.331,16.321,8.8,15.35Z" transform="translate(67.285 17.688)" fill="#5f802f"/>
          <path id="パス_478" data-name="パス 478" d="M-26.757,17.972-55.658.5l-.762,34.627Z" transform="translate(89.442 17.67)" fill="#8dc943"/>
          <path id="パス_479" data-name="パス 479" d="M-33.506-30.713l-30.769,17.76L-33.365,4.9Z" transform="translate(97.432 67.829)" fill="#f2ee2c"/>
          <path id="パス_480" data-name="パス 480" d="M31.721-.451,0,19.879,31.721,37.993Z" transform="translate(98.958 73.925)" fill="#3c1657"/>
          <path id="パス_481" data-name="パス 481" d="M-2.967,5.053,27.575,20.527-3.1,40.383Z" transform="translate(102.265 51.267)" fill="#4e1f6f"/>
          <path id="パス_482" data-name="パス 482" d="M3.8,3.354,23.677,36.162-6.133,20.718Z" transform="translate(106.198 33.768)" fill="#57023d"/>
          <path id="パス_483" data-name="パス 483" d="M14.31-16.483,14.487,49l-19.3-32.919Z" transform="translate(116.215 18.513)" fill="#9a055b"/>
          <path id="パス_484" data-name="パス 484" d="M1.98.863-16.822,33l-9.449-15.766Z" transform="translate(127.095 -0.623)" fill="#da0f5e"/>
          <path id="パス_485" data-name="パス 485" d="M-45.036.238l9.331,16.321-8.8,15.35Z" transform="translate(144.159 17.928)" fill="#da0f5e"/>
          <path id="パス_486" data-name="パス 486" d="M-56.42,17.972-27.519.5l.762,34.627Z" transform="translate(124.437 17.91)" fill="#f74924"/>
          <path id="パス_487" data-name="パス 487" d="M-64.286-30.713l30.769,17.76-30.907,17.9Z" transform="translate(131.063 68.069)" fill="#f89426"/>
        </g>
        <g id="グループ_161" data-name="グループ 161" transform="translate(52.132 183.115)">
          <path id="パス_506" data-name="パス 506" d="M0,0H4.5L8.84,7.272,12.924,0H17.53V21.256H12.924V8.334L9.389,13H8.175L4.5,8.334V21.256H0Z" fill="#080808"/>
          <path id="前面オブジェクトで型抜き_20" data-name="前面オブジェクトで型抜き 20" d="M17.054,21.569H13.471l-1.347-3.3H4.784l-1.031,3.3H-.854L5.756.6h4.862l6.436,20.968ZM8.037,6.631l-2.4,8.1h5.338l-2.462-8.1Z" transform="translate(28.952 -0.312)"/>
          <path id="パス_509" data-name="パス 509" d="M0,0H4.091L12.15,12.671V0h3.916V21.256H12.15L4.063,8.581V21.257H0Z" transform="translate(57.347)" fill="#080808"/>
          <path id="パス_510" data-name="パス 510" d="M0,0H14.733V3.9H4.434V8.965h6.633V12.3H4.434V17.5h10.3v3.752H0Z" transform="translate(85.123)" fill="#080808"/>
          <path id="パス_511" data-name="パス 511" d="M0,0H4.333V8.869L11.365,0h4.768L8.265,10.062l7.868,11.194H11.887L5.9,12.774,4.333,14.731v6.524H0Z" transform="translate(110.736)" fill="#080808"/>
          <rect id="長方形_385" data-name="長方形 385" width="4.225" height="21.256" transform="translate(137.481)" fill="#080808"/>
          <path id="パス_512" data-name="パス 512" d="M0,0H4.091L12.15,12.671V0h3.916V21.256H12.15L4.063,8.581V21.257H0Z" transform="translate(153.414)" fill="#080808"/>
        </g>
      </g>
      <text id="服の廃棄量削減を目指します" transform="translate(2022 -1135)" fill="#e3644d" font-size="35" font-family="HiraginoSans-W6, Hiragino Sans"><tspan x="0" y="0">服の廃棄量削減を目指します</tspan></text>
    </g>
  </g>
</svg>
