<svg xmlns="http://www.w3.org/2000/svg" xmlns:xlink="http://www.w3.org/1999/xlink" width="894" height="420" viewBox="0 0 894 420">
  <defs>
    <linearGradient id="linear-gradient" y1="0.5" x2="1" y2="0.5" gradientUnits="objectBoundingBox">
      <stop offset="0" stop-color="#fcb759"/>
      <stop offset="1" stop-color="#f7c472"/>
    </linearGradient>
  </defs>
  <g id="グループ_32" data-name="グループ 32" transform="translate(-4123 3896)">
    <rect id="長方形_97" data-name="長方形 97" width="894" height="420" rx="16" transform="translate(4123 -3896)" fill="url(#linear-gradient)"/>
    <g id="undraw_web_shopping_re_owap_2_" data-name="undraw_web_shopping_re_owap (2)" transform="translate(4651.183 -3792.925)">
      <rect id="Rectangle_338" data-name="Rectangle 338" width="228.544" height="146.37" transform="translate(0.097 0.129)" fill="#e6e6e6"/>
      <rect id="Rectangle_339" data-name="Rectangle 339" width="215.474" height="119.352" transform="translate(6.633 18.488)" fill="#fff"/>
      <rect id="Rectangle_340" data-name="Rectangle 340" width="228.544" height="9.709" fill="#f9a826"/>
      <circle id="Ellipse_513" data-name="Ellipse 513" cx="1.8" cy="1.8" r="1.8" transform="translate(5.416 3.164)" fill="#fff"/>
      <circle id="Ellipse_514" data-name="Ellipse 514" cx="1.8" cy="1.8" r="1.8" transform="translate(12.246 3.164)" fill="#fff"/>
      <circle id="Ellipse_515" data-name="Ellipse 515" cx="1.8" cy="1.8" r="1.8" transform="translate(19.077 3.164)" fill="#fff"/>
      <rect id="Rectangle_341" data-name="Rectangle 341" width="42.143" height="45.722" transform="translate(33.144 28.305)" fill="#e6e6e6"/>
      <rect id="Rectangle_342" data-name="Rectangle 342" width="42.143" height="45.722" transform="translate(93.297 28.305)" fill="#e6e6e6"/>
      <rect id="Rectangle_343" data-name="Rectangle 343" width="42.143" height="45.722" transform="translate(153.45 28.305)" fill="#e6e6e6"/>
      <rect id="Rectangle_344" data-name="Rectangle 344" width="42.143" height="45.722" transform="translate(33.144 82.302)" fill="#e6e6e6"/>
      <rect id="Rectangle_345" data-name="Rectangle 345" width="42.143" height="45.722" transform="translate(93.297 82.302)" fill="#e6e6e6"/>
      <rect id="Rectangle_346" data-name="Rectangle 346" width="42.143" height="45.722" transform="translate(153.45 82.302)" fill="#e6e6e6"/>
      <path id="Path_2643" data-name="Path 2643" d="M444.53,394.039l7.7-3.044.9,15.221s1.611,4.656,1.074,6.447c0,0,.358,3.044-.537,3.223a14.821,14.821,0,0,1-3.58.358c-.177-.179-.179-.716-.179-.716s-1.791,1.253-1.97,2.686c0,0-7.521,2.328-7.7.179s3.76-3.94,3.76-3.94l3.044-4.656Z" transform="translate(-341.047 -299.986)" fill="#fff"/>
      <path id="Path_2644" data-name="Path 2644" d="M490.5,394.039l7.7-3.044.9,15.221s1.612,4.656,1.074,6.447c0,0,.358,3.044-.537,3.223a14.822,14.822,0,0,1-3.58.358c-.177-.179-.179-.716-.179-.716s-1.791,1.253-1.97,2.686c0,0-7.521,2.328-7.7.179s3.76-3.94,3.76-3.94l3.044-4.656Z" transform="translate(-370.721 -299.986)" fill="#fff"/>
      <path id="Path_2645" data-name="Path 2645" d="M472.576,232.657s-1.639,4.581.26,6.647l-1.584,5.442s5.627,16.881,4.019,19.239c0,0-6,3-18.008-1.072L462.141,244l-.7-7.985.965-3.751,2.144-.213s-1.286,4.823,1.072,5.574,4.658-5.453,4.658-5.453Z" transform="translate(-352.044 -197.382)" fill="#3f3d56"/>
      <path id="Path_2646" data-name="Path 2646" d="M286.858,261.705l2.069.847,9.875-12.979,3.1,15.236,2.069-.376c1.327-13.135,2.41-26.533,1.082-32.87l-7.665-.329-3.48,11.1-1.693,7.524Z" transform="translate(-242.044 -196.857)" fill="#fff"/>
      <path id="Path_2647" data-name="Path 2647" d="M636.215,231.87s-2.824,3.926-2.686,5.51,1.928,27.411,1.928,27.411l4.2.207-1.241-18.6,1.033-5.028L642,264.791l5.166.138-4.614-30.373-.9-2.686Z" transform="translate(-465.823 -197.268)" fill="#fff"/>
      <path id="Path_2648" data-name="Path 2648" d="M638.048,403.855a5.834,5.834,0,0,0-3.276-1.649,17.646,17.646,0,0,0-3.828-.736l-1.432-1.141-4.4,2.285-2.473-1.684-1.149.408a21.985,21.985,0,0,0-3.566.423c-.69.025-1.572.068-2.559.144-3.456.266-3.722,9.217-3.722,9.217a14.126,14.126,0,0,1,5-1.047l.934,10.705a49.538,49.538,0,0,1,15.065,1.241l2.449-8.415,5.7-2.218S639.821,405.981,638.048,403.855Z" transform="translate(-451.697 -306.011)" fill="#3f3d56"/>
      <path id="Path_2649" data-name="Path 2649" d="M301.256,390.6a4.806,4.806,0,0,0-2.7-1.359,14.5,14.5,0,0,0-3.155-.606l-1.18-.94-3.626,1.883-2.038-1.387-.947.336a18.129,18.129,0,0,0-2.939.348c-.567.021-1.3.056-2.108.119-2.848.219-3.067,7.593-3.067,7.593a11.641,11.641,0,0,1,4.122-.863l.77,21.593a40.8,40.8,0,0,1,12.412,1.022l2.018-19.706,4.7-1.827S302.716,392.358,301.256,390.6Z" transform="translate(-237.293 -297.859)" fill="#fff"/>
      <path id="Path_2682" data-name="Path 2682" d="M909.887,374.023h20.206V363.212a10.1,10.1,0,1,0-20.206,0Z" transform="translate(-644.22 -275.53)" fill="#2f2e41"/>
      <path id="Path_2683" data-name="Path 2683" d="M872.764,720.925h-4.346l-2.068-16.764h6.414Z" transform="translate(-616.116 -502.14)" fill="#ffb6b6"/>
      <path id="Path_2684" data-name="Path 2684" d="M862.052,747.45h-8.559a5.454,5.454,0,0,0-5.454,5.453v.178h14.013Z" transform="translate(-604.296 -530.084)" fill="#2f2e41"/>
      <path id="Path_2685" data-name="Path 2685" d="M1005.819,708.51l-3.784,2.136-10.042-13.581,5.585-3.153Z" transform="translate(-697.22 -495.524)" fill="#ffb6b6"/>
      <path id="Path_2686" data-name="Path 2686" d="M1013.129,730.069l-7.453,4.206h0a5.454,5.454,0,0,0-2.068,7.431l.087.154,12.2-6.889Z" transform="translate(-704.263 -518.864)" fill="#2f2e41"/>
      <path id="Path_2687" data-name="Path 2687" d="M895.844,512.826l.335,1.677s1.006,1.006.5,1.509-.335,2.851-.335,2.851c.282,4.281,5.875,28.336,6.875,33.034a50.531,50.531,0,0,1,13.75,14.924c6.037,9.893,6.2,12.409,6.2,12.409l-6.706,2.851L899.7,561.79s-4.7-2.851-6.372-5.366-12.075-28.507-12.075-28.507l-5.87,27.165s.335,9.893-1.174,16.266a68.249,68.249,0,0,0-1.677,12.241l-7.881-.838s.5-23.811,1.341-26.327c0,0-3.521-29.009,3.521-40.58l5.676-15.132,5.559-2.14Z" transform="translate(-615.021 -369.429)" fill="#2f2e41"/>
      <path id="Path_2688" data-name="Path 2688" d="M924.233,360.565c-10.58.181-10.578,15.919,0,16.1C934.812,376.482,934.811,360.744,924.233,360.565Z" transform="translate(-648.358 -280.343)" fill="#ffb8b8"/>
      <path id="Path_2689" data-name="Path 2689" d="M915.711,364.683h1.8l.49-1.224-.245,1.224h9.835l-.319-2.562,2.391,2.562h2.385v-1.388a8.167,8.167,0,0,0-16.333-.012v1.4Z" transform="translate(-647.979 -276.83)" fill="#2f2e41"/>
      <path id="Path_2690" data-name="Path 2690" d="M894.015,419.235l19.993.162-4.224,42.863s-23.381-1.234-23.4-8.371l2.19-6.342Z" transform="translate(-629.051 -318.215)" fill="#3f3d56"/>
      <path id="Path_2693" data-name="Path 2693" d="M965.363,526.442a3.324,3.324,0,0,1,.957-5.006l-.869-7.546,4.457-1.647,1.077,10.674a3.342,3.342,0,0,1-5.622,3.525Z" transform="translate(-679.547 -378.254)" fill="#ffb6b6"/>
      <path id="Path_2694" data-name="Path 2694" d="M952.369,423.37,955,419.693s1.8-.4,3.927,2.082,3.368,33.5,3.368,33.5l-7.8,1.772-4.608-21.978Z" transform="translate(-670.041 -318.496)" fill="#3f3d56"/>
      <path id="パス_54" data-name="パス 54" d="M672.135,382.155l.58,27.556,17.839,9.428,32.488-5.8.8-28.644-20.6-7.252Z" transform="translate(-433.875 -243.645)" fill="#fff"/>
      <path id="パス_55" data-name="パス 55" d="M850.417,553.162l-18.074-9.551-.589-27.974,31.428-4.762.067.024,20.791,7.321-.81,29.084Zm-17.512-9.9,17.6,9.3,32.163-5.743.785-28.205-20.332-7.159-30.792,4.666Z" transform="translate(-593.783 -377.37)" fill="#cacaca"/>
      <path id="パス_56" data-name="パス 56" d="M689.964,397.728l-.07-.028-18.057-7.179.21-.529,17.987,7.151,33.574-4.631.078.564Z" transform="translate(-433.683 -251.746)" fill="#cacaca"/>
      <rect id="長方形_82" data-name="長方形 82" width="0.57" height="29.807" transform="translate(256.033 145.695) rotate(-0.697)" fill="#cacaca"/>
      <path id="パス_57" data-name="パス 57" d="M704.683,393.895l-6.509-2.639,31.334-4.993,6.509,2.638Z" transform="translate(-450.683 -249.339)" fill="#cacaca"/>
      <rect id="長方形_83" data-name="長方形 83" width="0.57" height="8.219" transform="translate(238.148 147.029) rotate(-66.705)" fill="#cacaca"/>
      <rect id="長方形_84" data-name="長方形 84" width="0.57" height="8.219" transform="translate(241.566 156.43) rotate(-66.705)" fill="#f9a826"/>
      <path id="パス_58" data-name="パス 58" d="M392.135,490.155l.58,27.556,17.839,9.428,32.488-5.8.8-28.644-20.6-7.252Z" transform="translate(-253.13 -313.36)" fill="#fff"/>
      <path id="パス_59" data-name="パス 59" d="M570.417,661.162l-18.074-9.551-.589-27.974,31.428-4.762.067.023,20.791,7.321-.81,29.084Zm-17.512-9.9,17.6,9.3,32.163-5.744.785-28.2-20.332-7.159-30.792,4.666Z" transform="translate(-413.039 -447.086)" fill="#cacaca"/>
      <path id="パス_60" data-name="パス 60" d="M409.964,505.728l-.07-.028-18.057-7.179.21-.529,17.987,7.151,33.574-4.631.078.564Z" transform="translate(-252.938 -321.462)" fill="#cacaca"/>
      <rect id="長方形_85" data-name="長方形 85" width="0.57" height="29.807" transform="translate(156.777 183.979) rotate(-0.697)" fill="#cacaca"/>
      <path id="パス_61" data-name="パス 61" d="M423.106,501.246l-4.932-1.99,31.335-4.993,4.932,1.99Z" transform="translate(-269.938 -319.055)" fill="#cacaca"/>
      <rect id="長方形_86" data-name="長方形 86" width="0.57" height="8.219" transform="translate(138.892 185.313) rotate(-66.705)" fill="#cacaca"/>
      <rect id="長方形_87" data-name="長方形 87" width="0.57" height="8.219" transform="translate(142.31 194.714) rotate(-66.705)" fill="#f9a826"/>
      <path id="パス_62" data-name="パス 62" d="M479.563,499.433l.673,31.989,20.709,10.944,37.713-6.734.926-33.252-23.907-8.418Z" transform="translate(-309.566 -318.86)" fill="#f9a826"/>
      <path id="パス_63" data-name="パス 63" d="M660.715,676.351l-20.981-11.088-.684-32.474,36.483-5.528.078.027,24.135,8.5-.94,33.762ZM640.387,664.86l20.436,10.8,37.336-6.667.912-32.741-23.6-8.311-35.745,5.416Z" transform="translate(-469.39 -452.5)" fill="#3f3d56"/>
      <path id="パス_64" data-name="パス 64" d="M500.26,517.511l-.081-.032-20.961-8.334.244-.615,20.88,8.3,38.974-5.376.09.655Z" transform="translate(-309.343 -328.265)" fill="#3f3d56"/>
      <rect id="長方形_88" data-name="長方形 88" width="0.661" height="34.601" transform="translate(190.627 188.912) rotate(-0.697)" fill="#3f3d56"/>
      <path id="パス_65" data-name="パス 65" d="M515.851,512.323,509.79,510l36.374-5.8,6.061,2.325Z" transform="translate(-329.078 -325.471)" fill="#3f3d56"/>
      <rect id="長方形_89" data-name="長方形 89" width="0.661" height="9.541" transform="translate(169.866 190.462) rotate(-66.705)" fill="#3f3d56"/>
      <rect id="長方形_90" data-name="長方形 90" width="0.661" height="9.541" transform="translate(173.834 201.375) rotate(-66.705)" fill="#fff"/>
      <path id="Path_2691" data-name="Path 2691" d="M852.4,510.96a3.324,3.324,0,0,0,1.3-4.927l4.049-6.427-3.305-3.413-5.591,9.156a3.342,3.342,0,0,0,3.545,5.612Z" transform="translate(-604.024 -367.893)" fill="#ffb6b6"/>
      <path id="Path_2692" data-name="Path 2692" d="M881.058,420.52l-2.9-1.911s-2.239.5-4.619,5.081-11.982,25.052-11.982,25.052l3.947,4.006,10.528-16.061Z" transform="translate(-613.022 -317.811)" fill="#3f3d56"/>
    </g>
    <text id="MANEKINを売る" transform="translate(4357.081 -3759.761)" fill="#fff" font-size="40" font-family="HiraginoSans-W6, Hiragino Sans"><tspan x="-163.9" y="0">MANEKINを売る</tspan></text>
    <g id="グループ_30" data-name="グループ 30" transform="translate(-915.919 8)">
      <rect id="長方形_99" data-name="長方形 99" width="133" height="48" rx="24" transform="translate(5110 -3599)" fill="#fff"/>
      <text id="出品する" transform="translate(5177 -3568)" fill="#fcb759" font-size="18" font-family="HiraginoSans-W6, Hiragino Sans"><tspan x="-36" y="0">出品する</tspan></text>
    </g>
    <text id="コーディネートを作って_コーディネートごとまとめて_出品することができます" data-name="コーディネートを作って、
コーディネートごとまとめて
出品することができます" transform="translate(4193.081 -3702)" fill="#fff" font-size="24" font-family="HiraginoSans-W6, Hiragino Sans"><tspan x="0" y="0">コーディネートを作って、</tspan><tspan x="0" y="30">コーディネートごとまとめて</tspan><tspan x="0" y="60">出品することができます</tspan></text>
  </g>
</svg>
